<svg width="25" height="25" viewBox="0 0 25 25" fill="none" xmlns="http://www.w3.org/2000/svg">
<path d="M3.81541 10.1729C4.91998 10.1729 5.81541 9.27748 5.81541 8.17291C5.81541 7.06834 4.91998 6.17291 3.81541 6.17291C2.71084 6.17291 1.81541 7.06834 1.81541 8.17291C1.81541 9.27748 2.71084 10.1729 3.81541 10.1729Z" fill="#8C8C8C"/>
<path d="M2.81541 18.1829H0.815414V13.1829C0.815414 12.6525 1.0261 12.1438 1.40117 11.7687C1.77624 11.3936 2.28498 11.1829 2.81541 11.1829H11.8154V13.1829H2.81541V18.1829Z" fill="#8C8C8C"/>
<path d="M6.81541 24.1729H4.81541V18.1729H3.81541V24.1729H1.81541V16.1729H6.81541V24.1729Z" fill="#8C8C8C"/>
<path d="M6.81541 12.1729H1.81541V18.1729H6.81541V12.1729Z" fill="#8C8C8C"/>
<path d="M20.8154 22.1729H15.8154V2.17291H20.8154V4.17291H17.8154V20.1729H20.8154V22.1729Z" fill="#8C8C8C"/>
<path d="M21.8154 24.1829C21.2221 24.1829 20.6421 24.0069 20.1488 23.6773C19.6554 23.3477 19.2708 22.8791 19.0438 22.331C18.8167 21.7828 18.7573 21.1796 18.8731 20.5977C18.9888 20.0157 19.2745 19.4811 19.6941 19.0616C20.1137 18.642 20.6482 18.3563 21.2302 18.2406C21.8121 18.1248 22.4153 18.1842 22.9635 18.4113C23.5117 18.6383 23.9802 19.0229 24.3098 19.5162C24.6395 20.0096 24.8154 20.5896 24.8154 21.1829C24.8154 21.9786 24.4994 22.7416 23.9368 23.3042C23.3742 23.8668 22.6111 24.1829 21.8154 24.1829ZM21.8154 20.1829C21.6177 20.1829 21.4243 20.2416 21.2598 20.3514C21.0954 20.4613 20.9672 20.6175 20.8916 20.8002C20.8159 20.983 20.7961 21.184 20.8347 21.378C20.8733 21.572 20.9685 21.7502 21.1084 21.89C21.2482 22.0299 21.4264 22.1251 21.6204 22.1637C21.8144 22.2023 22.0154 22.1825 22.1981 22.1068C22.3809 22.0311 22.537 21.9029 22.6469 21.7385C22.7568 21.574 22.8154 21.3807 22.8154 21.1829C22.8154 20.9177 22.7101 20.6633 22.5225 20.4758C22.335 20.2883 22.0807 20.1829 21.8154 20.1829Z" fill="#8C8C8C"/>
<path d="M21.8154 15.1829C21.2221 15.1829 20.6421 15.0069 20.1488 14.6773C19.6554 14.3477 19.2708 13.8791 19.0438 13.331C18.8167 12.7828 18.7573 12.1796 18.8731 11.5977C18.9888 11.0157 19.2745 10.4811 19.6941 10.0616C20.1137 9.64203 20.6482 9.35632 21.2302 9.24057C21.8121 9.12481 22.4153 9.18422 22.9635 9.41128C23.5117 9.63835 23.9802 10.0229 24.3098 10.5162C24.6395 11.0096 24.8154 11.5896 24.8154 12.1829C24.8154 12.9786 24.4994 13.7416 23.9368 14.3042C23.3742 14.8668 22.6111 15.1829 21.8154 15.1829ZM21.8154 11.1829C21.6177 11.1829 21.4243 11.2416 21.2598 11.3514C21.0954 11.4613 20.9672 11.6175 20.8916 11.8002C20.8159 11.983 20.7961 12.184 20.8347 12.378C20.8733 12.572 20.9685 12.7502 21.1084 12.89C21.2482 13.0299 21.4264 13.1251 21.6204 13.1637C21.8144 13.2023 22.0154 13.1825 22.1981 13.1068C22.3809 13.0311 22.537 12.9029 22.6469 12.7385C22.7568 12.574 22.8154 12.3807 22.8154 12.1829C22.8154 11.9177 22.7101 11.6633 22.5225 11.4758C22.335 11.2883 22.0807 11.1829 21.8154 11.1829Z" fill="#8C8C8C"/>
<path d="M21.8154 6.18292C21.2221 6.18292 20.6421 6.00695 20.1488 5.67731C19.6554 5.34766 19.2708 4.87914 19.0438 4.33096C18.8167 3.78278 18.7573 3.1796 18.8731 2.59765C18.9888 2.01571 19.2745 1.48114 19.6941 1.06158C20.1137 0.642025 20.6482 0.356324 21.2302 0.240568C21.8121 0.124813 22.4153 0.184221 22.9635 0.411284C23.5117 0.638347 23.9802 1.02286 24.3098 1.5162C24.6395 2.00955 24.8154 2.58958 24.8154 3.18292C24.8154 3.97857 24.4994 4.74162 23.9368 5.30423C23.3742 5.86684 22.6111 6.18292 21.8154 6.18292ZM21.8154 2.18292C21.6177 2.18292 21.4243 2.24156 21.2598 2.35144C21.0954 2.46132 20.9672 2.6175 20.8916 2.80023C20.8159 2.98296 20.7961 3.18401 20.8347 3.37799C20.8733 3.57197 20.9685 3.75016 21.1084 3.89001C21.2482 4.02987 21.4264 4.12511 21.6204 4.16369C21.8144 4.20228 22.0154 4.18247 22.1981 4.10678C22.3809 4.03109 22.537 3.90294 22.6469 3.73849C22.7568 3.57404 22.8154 3.3807 22.8154 3.18292C22.8154 2.9177 22.7101 2.66333 22.5225 2.4758C22.335 2.28826 22.0807 2.18292 21.8154 2.18292Z" fill="#8C8C8C"/>
<path d="M19.8154 11.1729H13.8154V13.1729H19.8154V11.1729Z" fill="#8C8C8C"/>
</svg>
