<svg width="20" height="21" viewBox="0 0 20 21" fill="none" xmlns="http://www.w3.org/2000/svg">
<path d="M19.72 9.50479V18.6076C19.72 19.0254 19.5541 19.4261 19.2586 19.7215C18.9632 20.017 18.5625 20.1829 18.1446 20.1829H14.2062C13.7884 20.1829 13.3877 20.017 13.0922 19.7215C12.7968 19.4261 12.6308 19.0254 12.6308 18.6076V14.6691C12.6308 14.4602 12.5478 14.2598 12.4001 14.1121C12.2524 13.9644 12.052 13.8814 11.8431 13.8814H8.69234C8.48343 13.8814 8.28308 13.9644 8.13535 14.1121C7.98763 14.2598 7.90464 14.4602 7.90464 14.6691V18.6076C7.90464 19.0254 7.73867 19.4261 7.44323 19.7215C7.14778 20.017 6.74708 20.1829 6.32926 20.1829H2.3908C1.97298 20.1829 1.57228 20.017 1.27683 19.7215C0.981392 19.4261 0.815414 19.0254 0.815414 18.6076V9.50479C0.815381 9.28676 0.860607 9.07109 0.948231 8.87144C1.03585 8.67178 1.16397 8.49249 1.32446 8.34491L9.20138 0.913035L9.21221 0.902204C9.50222 0.638458 9.88015 0.49231 10.2722 0.49231C10.6642 0.49231 11.0421 0.638458 11.3321 0.902204C11.3355 0.906057 11.3391 0.909676 11.3429 0.913035L19.2198 8.34491C19.3787 8.49327 19.5052 8.67291 19.5913 8.87253C19.6774 9.07214 19.7212 9.28741 19.72 9.50479Z" fill="#00BAB5"/>
</svg>
