<svg width="23" height="24" viewBox="0 0 23 24" fill="none" xmlns="http://www.w3.org/2000/svg">
<path d="M11.8154 16.1829H10.8154C10.285 16.1829 9.7763 15.9722 9.40123 15.5971C9.02616 15.2221 8.81541 14.7134 8.81541 14.1829V13.1829C8.81541 12.6525 9.02616 12.1438 9.40123 11.7687C9.7763 11.3936 10.285 11.1829 10.8154 11.1829H14.8154V13.1829H10.8154V14.1829H11.8154V16.1829Z" fill="#8C8C8C"/>
<path d="M12.8154 19.1829H8.81541V17.1829H12.8154V16.1829H10.8154V14.1829H12.8154C13.3458 14.1829 13.8546 14.3936 14.2297 14.7687C14.6047 15.1438 14.8154 15.6525 14.8154 16.1829V17.1829C14.8154 17.7134 14.6047 18.2221 14.2297 18.5971C13.8546 18.9722 13.3458 19.1829 12.8154 19.1829Z" fill="#8C8C8C"/>
<path d="M12.8155 10.1829H10.8155V12.1829H12.8155V10.1829Z" fill="#8C8C8C"/>
<path d="M12.8155 18.1829H10.8155V20.1829H12.8155V18.1829Z" fill="#8C8C8C"/>
<path d="M22.8155 9.18292H0.815475V2.18292H3.81548V4.18292H2.81548V7.18292H20.8155V4.18292H18.8155V2.18292H22.8155V9.18292Z" fill="#8C8C8C"/>
<path d="M16.8155 2.18292H5.81548V4.18292H16.8155V2.18292Z" fill="#8C8C8C"/>
<path d="M6.81548 0.182922H4.81548V6.18292H6.81548V0.182922Z" fill="#8C8C8C"/>
<path d="M19.8155 0.182922H17.8155V6.18292H19.8155V0.182922Z" fill="#8C8C8C"/>
<path d="M22.8154 23.1829H0.815414V7.18292H22.8154V23.1829ZM2.81541 21.1829H20.8154V9.18292H2.81541V21.1829Z" fill="#8C8C8C"/>
</svg>
