<svg width="31" height="31" viewBox="0 0 31 31" fill="none" xmlns="http://www.w3.org/2000/svg">
<path d="M26.0217 3.70801C25.5467 3.60801 25.0717 3.85798 24.8967 4.30798C24.6217 4.95798 21.9717 7.70796 19.6967 7.78296C18.3967 7.83296 17.1967 6.93297 15.9217 5.98297C14.2967 4.78297 12.4467 3.433 10.0967 3.883C6.62166 4.558 5.02166 7.65798 4.94666 7.80798C4.84666 8.00798 4.82165 8.25797 4.87165 8.48297L5.87165 12.958L8.79667 25.933C8.89667 26.408 9.32168 26.708 9.77168 26.708C9.84668 26.708 9.92165 26.708 9.99665 26.683C10.5467 26.558 10.8717 26.033 10.7467 25.483L9.04667 17.908C9.49667 17.208 10.7717 15.483 12.7717 15.033C13.9717 14.758 14.9217 15.083 16.0217 15.433C17.2467 15.833 18.6467 16.308 20.4467 15.908C24.1967 15.058 26.7717 10.558 26.8467 4.70801C26.8217 4.20801 26.4967 3.80801 26.0217 3.70801ZM19.9717 13.958C18.7217 14.233 17.7467 13.908 16.6217 13.533C15.3967 13.133 14.0217 12.658 12.2967 13.058C10.5967 13.433 9.32166 14.433 8.44666 15.383L8.34666 14.933L6.87165 8.43298C7.29665 7.78298 8.47166 6.23297 10.4467 5.85797C11.9467 5.58297 13.2217 6.50797 14.6967 7.60797C16.1217 8.65797 17.7717 9.85796 19.7467 9.78296C21.4217 9.70796 23.1467 8.733 24.4967 7.633C23.9217 10.633 22.4467 13.383 19.9717 13.958Z" fill="#8C8C8C"/>
</svg>
