<svg width="20" height="19" viewBox="0 0 20 19" fill="none" xmlns="http://www.w3.org/2000/svg">
<path fill-rule="evenodd" clip-rule="evenodd" d="M14.6862 8.74771C14.6862 11.7929 12.2176 14.2616 9.17236 14.2616C6.12715 14.2616 3.65851 11.7929 3.65851 8.74771C3.65851 5.7025 6.12715 3.23386 9.17236 3.23386C12.2176 3.23386 14.6862 5.7025 14.6862 8.74771ZM14.7113 13.1727C15.6815 11.9599 16.2616 10.4216 16.2616 8.74771C16.2616 4.83243 13.0876 1.65848 9.17236 1.65848C5.25709 1.65848 2.08313 4.83243 2.08313 8.74771C2.08313 12.663 5.25709 15.8369 9.17236 15.8369C10.8462 15.8369 12.3846 15.2568 13.5974 14.2867L15.7046 16.3939C16.0122 16.7015 16.511 16.7015 16.8186 16.3939C17.1262 16.0863 17.1262 15.5876 16.8186 15.28L14.7113 13.1727Z" fill="#A2A5B1"/>
</svg>
