<svg width="20" height="18" viewBox="0 0 20 18" fill="none" xmlns="http://www.w3.org/2000/svg">
<path d="M18.2204 5.78296H16.0204C16.0204 5.78296 16.0004 5.72298 16.0004 5.70298L12.2204 1.08296C11.9404 0.74296 11.4404 0.68294 11.1004 0.96294C10.7604 1.24294 10.7004 1.78295 10.9804 2.12295L13.9604 5.78296H5.70042L8.68041 2.12295C8.96041 1.78295 8.92042 1.26296 8.56042 0.98296C8.22042 0.70296 7.72041 0.74296 7.44041 1.08296L3.66042 5.72295C3.66042 5.74295 3.64041 5.78296 3.64041 5.78296H1.44041C1.00041 5.78296 0.64041 6.06298 0.64041 6.50298V9.50298C0.64041 9.94298 1.00041 10.383 1.44041 10.383H1.70042L3.20042 16.4629C3.36042 17.1629 3.98042 17.583 4.70042 17.583H14.9804C15.7004 17.583 16.3004 17.1429 16.4804 16.4629L17.9804 10.383H18.2404C18.6804 10.383 19.0404 9.94298 19.0404 9.50298V6.50298C19.0204 6.06298 18.6604 5.78296 18.2204 5.78296ZM2.22041 7.38296H17.4204V8.78296H17.3404H2.30042H2.22041V7.38296ZM14.9204 15.983H4.72041L3.32041 10.383H16.3204L14.9204 15.983Z" fill="#8C8C8C"/>
</svg>
