<svg width="23" height="23" viewBox="0 0 23 23" fill="none" xmlns="http://www.w3.org/2000/svg">
<path d="M22.8154 22.1829H0.815414V0.182922H2.81541V20.1829H22.8154V22.1829Z" fill="#8C8C8C"/>
<path d="M2.52541 16.8929L1.1154 15.4829L7.8154 8.7729L11.3154 12.2729L21.1154 2.48291L22.5254 3.89291L11.3154 15.1029L7.8154 11.6029L2.52541 16.8929Z" fill="#8C8C8C"/>
<path d="M22.8154 9.18292H20.8154V4.18292H15.8154V2.18292H22.8154V9.18292Z" fill="#8C8C8C"/>
<path d="M6.81541 18.1829H4.81541V21.1829H6.81541V18.1829Z" fill="#8C8C8C"/>
<path d="M10.8154 18.1829H8.81541V21.1829H10.8154V18.1829Z" fill="#8C8C8C"/>
<path d="M14.8154 18.1829H12.8154V21.1829H14.8154V18.1829Z" fill="#8C8C8C"/>
<path d="M18.8154 18.1829H16.8154V21.1829H18.8154V18.1829Z" fill="#8C8C8C"/>
<path d="M22.8154 18.1829H20.8154V21.1829H22.8154V18.1829Z" fill="#8C8C8C"/>
</svg>
