<svg width="27" height="26" viewBox="0 0 27 26" fill="none" xmlns="http://www.w3.org/2000/svg">
<path d="M13.4816 8.12287C12.5468 8.12287 11.6331 8.40005 10.8558 8.91937C10.0786 9.43868 9.47287 10.1768 9.11516 11.0404C8.75745 11.904 8.66385 12.8543 8.84621 13.771C9.02857 14.6878 9.47869 15.53 10.1397 16.1909C10.8006 16.8519 11.6427 17.302 12.5595 17.4844C13.4763 17.6667 14.4266 17.5731 15.2902 17.2154C16.1538 16.8577 16.8919 16.2519 17.4112 15.4747C17.9305 14.6975 18.2077 13.7838 18.2077 12.849C18.2064 11.596 17.7081 10.3946 16.822 9.50856C15.936 8.62252 14.7346 8.12417 13.4816 8.12287ZM13.4816 15.9998C12.8584 15.9998 12.2492 15.815 11.7311 15.4688C11.2129 15.1226 10.8091 14.6305 10.5706 14.0548C10.3321 13.479 10.2698 12.8455 10.3913 12.2343C10.5129 11.6231 10.813 11.0617 11.2536 10.6211C11.6943 10.1804 12.2557 9.88037 12.8669 9.75879C13.4781 9.63722 14.1116 9.69961 14.6873 9.93809C15.263 10.1766 15.7551 10.5804 16.1013 11.0985C16.4475 11.6167 16.6323 12.2259 16.6323 12.849C16.6323 13.6847 16.3004 14.4861 15.7095 15.077C15.1186 15.6678 14.3172 15.9998 13.4816 15.9998ZM22.1462 13.0617C22.1501 12.9199 22.1501 12.7781 22.1462 12.6363L23.6152 10.801C23.6922 10.7047 23.7456 10.5915 23.7709 10.4708C23.7962 10.3501 23.7928 10.2251 23.7609 10.1059C23.5201 9.20063 23.1599 8.33146 22.6897 7.52127C22.6281 7.41524 22.5426 7.32505 22.4401 7.25787C22.3375 7.1907 22.2207 7.14839 22.0989 7.13431L19.7634 6.87437C19.6663 6.77197 19.5678 6.67351 19.468 6.57899L19.1923 4.23757C19.1781 4.11569 19.1357 3.99881 19.0683 3.89624C19.001 3.79367 18.9106 3.70826 18.8044 3.64681C17.9939 3.17748 17.1248 2.8176 16.2198 2.57653C16.1005 2.54482 15.9755 2.54158 15.8547 2.56706C15.734 2.59254 15.6209 2.64604 15.5246 2.72324L13.6942 4.1844C13.5524 4.1844 13.4107 4.1844 13.2689 4.1844L11.4336 2.71831C11.3372 2.64128 11.2241 2.58797 11.1033 2.56266C10.9826 2.53734 10.8576 2.54075 10.7384 2.57259C9.83331 2.81385 8.96419 3.17407 8.1538 3.64385C8.04777 3.70542 7.95758 3.79088 7.89041 3.89344C7.82323 3.996 7.78092 4.11283 7.76685 4.23462L7.50691 6.57407C7.40451 6.67187 7.30605 6.77033 7.21152 6.86945L4.87011 7.13825C4.74822 7.15243 4.63134 7.19489 4.52877 7.26224C4.4262 7.3296 4.34079 7.41998 4.27934 7.52619C3.81002 8.33669 3.45013 9.20579 3.20906 10.1108C3.17735 10.2301 3.17411 10.3551 3.19959 10.4759C3.22508 10.5966 3.27857 10.7097 3.35577 10.8059L4.81694 12.6363C4.81694 12.7781 4.81694 12.9199 4.81694 13.0617L3.35085 14.897C3.27382 14.9934 3.2205 15.1065 3.19519 15.2272C3.16988 15.348 3.17328 15.473 3.20512 15.5922C3.44595 16.4974 3.8062 17.3666 4.27638 18.1768C4.33795 18.2828 4.42341 18.373 4.52597 18.4402C4.62854 18.5073 4.74536 18.5497 4.86715 18.5637L7.20266 18.8237C7.30047 18.9261 7.39893 19.0245 7.49805 19.1191L7.77079 21.4605C7.78497 21.5823 7.82742 21.6992 7.89478 21.8018C7.96213 21.9044 8.05251 21.9898 8.15872 22.0512C8.96922 22.5206 9.83832 22.8804 10.7433 23.1215C10.8626 23.1532 10.9876 23.1565 11.1084 23.131C11.2291 23.1055 11.3422 23.052 11.4385 22.9748L13.2689 21.5136C13.4107 21.5176 13.5524 21.5176 13.6942 21.5136L15.5296 22.9827C15.6259 23.0597 15.739 23.113 15.8598 23.1383C15.9805 23.1637 16.1055 23.1602 16.2247 23.1284C17.1299 22.8876 17.9991 22.5273 18.8093 22.0571C18.9153 21.9956 19.0055 21.9101 19.0727 21.8076C19.1399 21.705 19.1822 21.5882 19.1963 21.4664L19.4562 19.1309C19.5586 19.0337 19.6571 18.9353 19.7516 18.8355L22.093 18.5598C22.2149 18.5456 22.3318 18.5032 22.4343 18.4358C22.5369 18.3684 22.6223 18.2781 22.6838 18.1719C23.1531 17.3614 23.513 16.4923 23.754 15.5872C23.7858 15.468 23.789 15.3429 23.7635 15.2222C23.738 15.1014 23.6845 14.9884 23.6073 14.8921L22.1462 13.0617ZM20.5609 12.4217C20.5777 12.7063 20.5777 12.9917 20.5609 13.2763C20.5492 13.4712 20.6103 13.6635 20.7323 13.8159L22.1294 15.5616C21.9691 16.0711 21.7638 16.5654 21.516 17.0386L19.2908 17.2906C19.097 17.3121 18.9181 17.4047 18.7886 17.5506C18.5991 17.7637 18.3972 17.9656 18.1841 18.1551C18.0383 18.2846 17.9456 18.4635 17.9241 18.6573L17.677 20.8805C17.2039 21.1285 16.7096 21.3337 16.2001 21.4939L14.4534 20.0968C14.3136 19.9851 14.14 19.9243 13.9611 19.9245H13.9138C13.6292 19.9412 13.3438 19.9412 13.0592 19.9245C12.8643 19.9127 12.672 19.9738 12.5196 20.0958L10.7689 21.4939C10.2594 21.3336 9.76518 21.1283 9.29202 20.8805L9.03995 18.6583C9.01844 18.4645 8.92583 18.2855 8.78002 18.1561C8.56686 17.9666 8.36499 17.7647 8.17546 17.5515C8.04602 17.4057 7.8671 17.3131 7.67331 17.2916L5.45005 17.0435C5.20211 16.5704 4.99683 16.0761 4.83663 15.5666L6.2338 13.8199C6.3558 13.6674 6.41685 13.4752 6.40512 13.2803C6.38839 12.9956 6.38839 12.7103 6.40512 12.4256C6.41685 12.2308 6.3558 12.0385 6.2338 11.8861L4.83663 10.1364C4.99695 9.6269 5.20223 9.13265 5.45005 8.65948L7.67232 8.40742C7.86611 8.38591 8.04503 8.29329 8.17448 8.14748C8.36401 7.93432 8.56587 7.73246 8.77903 7.54293C8.92542 7.4134 9.01842 7.23407 9.03995 7.03979L9.28709 4.81751C9.7602 4.56958 10.2545 4.36429 10.764 4.2041L12.5107 5.60127C12.6631 5.72327 12.8554 5.78432 13.0503 5.77259C13.3349 5.75585 13.6203 5.75585 13.9049 5.77259C14.0998 5.78432 14.2921 5.72327 14.4445 5.60127L16.1942 4.2041C16.7037 4.36442 17.1979 4.5697 17.6711 4.81751L17.9232 7.03979C17.9447 7.23358 18.0373 7.4125 18.1831 7.54194C18.3963 7.73147 18.5981 7.93334 18.7876 8.1465C18.9171 8.29231 19.096 8.38492 19.2898 8.40644L21.5131 8.65357C21.761 9.12668 21.9663 9.62095 22.1265 10.1305L20.7293 11.8772C20.6061 12.0309 20.545 12.2252 20.558 12.4217H20.5609Z" fill="#8C8C8C"/>
</svg>
