<svg width="25" height="25" viewBox="0 0 25 25" fill="none" xmlns="http://www.w3.org/2000/svg">
<path d="M13.8154 11.1829H11.8154C11.2849 11.1829 10.7762 11.3936 10.4011 11.7687C10.0261 12.1438 9.81535 12.6525 9.81535 13.1829V15.1829H15.8154V13.1829C15.8154 12.6525 15.6046 12.1438 15.2296 11.7687C14.8545 11.3936 14.3458 11.1829 13.8154 11.1829Z" fill="#8C8C8C"/>
<path d="M12.8154 10.1829C13.92 10.1829 14.8154 9.28749 14.8154 8.18292C14.8154 7.07835 13.92 6.18292 12.8154 6.18292C11.7108 6.18292 10.8154 7.07835 10.8154 8.18292C10.8154 9.28749 11.7108 10.1829 12.8154 10.1829Z" fill="#8C8C8C"/>
<path d="M24.8154 7.18292H22.8154V2.18292H17.8154V0.182922H24.8154V7.18292Z" fill="#8C8C8C"/>
<path d="M23.1121 0.488381L16.6138 6.98669L18.028 8.40091L24.5263 1.90259L23.1121 0.488381Z" fill="#8C8C8C"/>
<path d="M24.8154 24.1829H17.8154V22.1829H22.8154V17.1829H24.8154V24.1829Z" fill="#8C8C8C"/>
<path d="M18.0211 15.9685L16.6069 17.3827L23.1052 23.881L24.5194 22.4668L18.0211 15.9685Z" fill="#8C8C8C"/>
<path d="M2.81541 7.18292H0.815414V0.182922H7.81541V2.18292H2.81541V7.18292Z" fill="#8C8C8C"/>
<path d="M2.52077 0.468477L1.10655 1.88269L7.60487 8.381L9.01908 6.96679L2.52077 0.468477Z" fill="#8C8C8C"/>
<path d="M7.81541 24.1829H0.815414V17.1829H2.81541V22.1829H7.81541V24.1829Z" fill="#8C8C8C"/>
<path d="M7.61213 15.9886L1.11382 22.4869L2.52803 23.9012L9.02634 17.4028L7.61213 15.9886Z" fill="#8C8C8C"/>
</svg>
