<svg width="9" height="11" viewBox="0 0 9 11" fill="none" xmlns="http://www.w3.org/2000/svg">
<path d="M8.44187 4.62167C8.32854 4.73501 8.18687 4.79168 8.04521 4.79168C7.90354 4.79168 7.76188 4.73501 7.64854 4.62167L5.07021 2.04334V10.3167C5.07021 10.6283 4.81521 10.8833 4.50354 10.8833C4.19188 10.8833 3.93688 10.6283 3.93688 10.3167V2.04334L1.35854 4.60751C1.13187 4.83418 0.777706 4.83418 0.551039 4.60751C0.324372 4.38084 0.324372 4.02668 0.551039 3.80001L4.09271 0.272509C4.31937 0.0458427 4.67354 0.0458427 4.88604 0.272509L8.42771 3.80001C8.66854 4.04084 8.66854 4.39501 8.44187 4.62167Z" fill="#00BAB5"/>
</svg>
