<svg width="12" height="15" viewBox="0 0 12 15" fill="none" xmlns="http://www.w3.org/2000/svg">
<path d="M5.56931 8.42435C4.92104 8.4251 4.29255 8.21059 3.79085 7.81737C3.28916 7.42416 2.94528 6.87653 2.81779 6.26776C2.80763 6.20364 2.81214 6.13816 2.83102 6.07587C2.84991 6.01359 2.8827 5.95597 2.92714 5.90703C2.97157 5.85809 3.02659 5.81898 3.08837 5.79242C3.15015 5.76587 3.21723 5.75249 3.28494 5.75322C3.39623 5.75168 3.50444 5.78823 3.59009 5.85632C3.67573 5.9244 3.73318 6.01954 3.75209 6.12459C3.84007 6.52679 4.06988 6.88774 4.40292 7.14681C4.73596 7.40588 5.15194 7.5473 5.58099 7.5473C6.01004 7.5473 6.42602 7.40588 6.75906 7.14681C7.0921 6.88774 7.32191 6.52679 7.40989 6.12459C7.4288 6.01954 7.48625 5.9244 7.57189 5.85632C7.65754 5.78823 7.76575 5.75168 7.87704 5.75322C7.94476 5.75249 8.01183 5.76587 8.07361 5.79242C8.13539 5.81898 8.19041 5.85809 8.23485 5.90703C8.27928 5.95597 8.31208 6.01359 8.33096 6.07587C8.34984 6.13816 8.35435 6.20364 8.34419 6.26776C8.21594 6.88032 7.86863 7.43086 7.36211 7.82451C6.85559 8.21817 6.22158 8.4303 5.56931 8.42435Z" fill="white"/>
<path d="M9.72632 14.3214H1.41102C1.22093 14.3216 1.03278 14.2848 0.858013 14.2132C0.683246 14.1416 0.525517 14.0367 0.394421 13.9049C0.263324 13.773 0.161602 13.617 0.0954399 13.4463C0.0292782 13.2757 6.09132e-05 13.0939 0.00956554 12.912L0.387958 5.19842C0.403619 4.8526 0.558157 4.52595 0.819303 4.28667C1.08045 4.04739 1.42801 3.91399 1.78941 3.91431H9.34792C9.70933 3.91399 10.0569 4.04739 10.318 4.28667C10.5792 4.52595 10.7337 4.8526 10.7494 5.19842L11.1278 12.912C11.1373 13.0939 11.1081 13.2757 11.0419 13.4463C10.9757 13.617 10.874 13.773 10.7429 13.9049C10.6118 14.0367 10.4541 14.1416 10.2793 14.2132C10.1046 14.2848 9.91641 14.3216 9.72632 14.3214ZM1.78941 4.81364C1.66552 4.81364 1.54669 4.86078 1.45909 4.94468C1.37148 5.02859 1.32226 5.1424 1.32226 5.26106L0.943869 12.9568C0.9407 13.0174 0.950439 13.078 0.972493 13.1349C0.994547 13.1918 1.02845 13.2438 1.07215 13.2877C1.11585 13.3317 1.16843 13.3666 1.22668 13.3905C1.28494 13.4144 1.34766 13.4266 1.41102 13.4266H9.72632C9.78968 13.4266 9.8524 13.4144 9.91065 13.3905C9.96891 13.3666 10.0215 13.3317 10.0652 13.2877C10.1089 13.2438 10.1428 13.1918 10.1648 13.1349C10.1869 13.078 10.1966 13.0174 10.1935 12.9568L9.81507 5.24316C9.81507 5.1245 9.76586 5.01069 9.67825 4.92679C9.59064 4.84288 9.47182 4.79574 9.34792 4.79574L1.78941 4.81364Z" fill="white"/>
<path d="M8.37144 4.36618H7.43714V3.58319C7.43714 3.10853 7.24027 2.65332 6.88984 2.31768C6.53941 1.98205 6.06412 1.79349 5.56853 1.79349C5.07295 1.79349 4.59766 1.98205 4.24723 2.31768C3.8968 2.65332 3.69993 3.10853 3.69993 3.58319V4.36618H2.76562V3.58319C2.76562 2.8712 3.06093 2.18838 3.58658 1.68493C4.11223 1.18148 4.82516 0.89864 5.56853 0.89864C6.31191 0.89864 7.02484 1.18148 7.55049 1.68493C8.07614 2.18838 8.37144 2.8712 8.37144 3.58319V4.36618Z" fill="white"/>
</svg>
