<svg width="40" height="40" viewBox="0 0 40 40" fill="none" xmlns="http://www.w3.org/2000/svg">
<rect x="-1" y="1" width="38" height="38" rx="19" transform="matrix(-1 0 0 1 38 0)" stroke="#0C0B0B" stroke-width="2"/>
<path d="M15.1885 22.2762C15.1 22.3647 15.1 22.509 15.1885 22.5975L19.8398 27.2479C19.9284 27.3363 20.0716 27.3364 20.1602 27.2479L24.8105 22.5975C24.855 22.553 24.8769 22.4958 24.877 22.4373C24.877 22.3786 24.8549 22.3206 24.8105 22.2762L24.8105 22.2752C24.722 22.1876 24.5785 22.1881 24.4902 22.2762L21.0801 25.6873L20.2266 26.5408L20.2266 12.9119C20.2265 12.7869 20.125 12.6855 20 12.6854C19.8749 12.6854 19.7735 12.7868 19.7734 12.9119L19.7734 26.5408L15.5088 22.2762C15.4203 22.188 15.277 22.1879 15.1885 22.2762Z" fill="#0C0B0B" stroke="#0C0B0B"/>
</svg>
