<svg width="26" height="26" viewBox="0 0 26 26" fill="none" xmlns="http://www.w3.org/2000/svg">
<path d="M13 -0.00016902C14.1704 -0.00016902 15.2993 0.149245 16.3867 0.448073C17.4741 0.746901 18.491 1.17439 19.4373 1.73054C20.3835 2.2867 21.2427 2.95076 22.0146 3.72273C22.7866 4.4947 23.4507 5.35799 24.0068 6.31257C24.563 7.26716 24.9905 8.28401 25.2893 9.36311C25.5881 10.4422 25.7417 11.5711 25.75 12.7498C25.75 13.9202 25.6006 15.0491 25.3018 16.1365C25.0029 17.224 24.5754 18.2408 24.0193 19.1871C23.4631 20.1334 22.7991 20.9925 22.0271 21.7645C21.2551 22.5364 20.3918 23.2005 19.4373 23.7567C18.4827 24.3128 17.4658 24.7403 16.3867 25.0391C15.3076 25.338 14.1787 25.4915 13 25.4998C11.5723 25.4998 10.2026 25.2716 8.89111 24.815C7.57959 24.3585 6.38013 23.7193 5.29272 22.8975C4.20532 22.0758 3.26733 21.088 2.47876 19.9342C1.69019 18.7803 1.10498 17.5186 0.723145 16.149L2.25464 15.7257C2.58667 16.9293 3.09717 18.0291 3.78613 19.0252C4.4751 20.0213 5.29687 20.8846 6.25146 21.6151C7.20605 22.3455 8.2561 22.9058 9.40161 23.296C10.5471 23.6861 11.7466 23.8895 13 23.9061C14.021 23.9061 15.0046 23.7733 15.9509 23.5076C16.8972 23.242 17.7854 22.8685 18.6155 22.387C19.4456 21.9056 20.2009 21.3204 20.8816 20.6314C21.5623 19.9425 22.1433 19.1912 22.6248 18.3778C23.1062 17.5643 23.4839 16.6761 23.7578 15.7132C24.0317 14.7503 24.1645 13.7625 24.1562 12.7498C24.1562 11.7288 24.0234 10.7452 23.7578 9.7989C23.4922 8.85261 23.1187 7.96443 22.6372 7.13435C22.1558 6.30427 21.5706 5.5489 20.8816 4.86824C20.1926 4.18757 19.4414 3.60652 18.6279 3.12507C17.8145 2.64363 16.9263 2.26594 15.9634 1.99202C15.0005 1.71809 14.0127 1.58528 13 1.59358C11.9292 1.59358 10.8875 1.74299 9.87475 2.04182C8.86206 2.34065 7.91992 2.76814 7.04834 3.32429C6.17676 3.88045 5.38403 4.54866 4.67017 5.32893C3.9563 6.10921 3.37524 6.98909 2.927 7.96858H6.625V9.56233H0.25V3.18733H1.84375V6.59895C2.3999 5.57796 3.07642 4.66072 3.87329 3.84724C4.67017 3.03377 5.55005 2.3448 6.51294 1.78035C7.47583 1.2159 8.50928 0.775954 9.61328 0.460524C10.7173 0.145095 11.8462 -0.0084698 13 -0.00016902Z" fill="#00BAB5"/>
</svg>
