<svg width="27" height="33" viewBox="0 0 27 33" fill="none" xmlns="http://www.w3.org/2000/svg">
<path d="M8.43945 4.4375H5.06445C4.16935 4.4375 3.3109 4.79308 2.67797 5.42601C2.04503 6.05895 1.68945 6.91739 1.68945 7.8125V28.0625C1.68945 28.9576 2.04503 29.816 2.67797 30.449C3.3109 31.0819 4.16935 31.4375 5.06445 31.4375H21.9395C22.8346 31.4375 23.693 31.0819 24.3259 30.449C24.9589 29.816 25.3145 28.9576 25.3145 28.0625V7.8125C25.3145 6.91739 24.9589 6.05895 24.3259 5.42601C23.693 4.79308 22.8346 4.4375 21.9395 4.4375H18.5645" stroke="#00BAB5" stroke-width="1.5" stroke-linecap="round" stroke-linejoin="round"/>
<path d="M8.43945 19.625H8.45633M8.43945 24.6875H8.45633M13.502 23L15.1895 24.6875L20.252 19.625M8.43945 4.4375C8.43945 3.54239 8.79503 2.68395 9.42797 2.05101C10.0609 1.41808 10.9193 1.0625 11.8145 1.0625H15.1895C16.0846 1.0625 16.943 1.41808 17.5759 2.05101C18.2089 2.68395 18.5645 3.54239 18.5645 4.4375C18.5645 5.33261 18.2089 6.19105 17.5759 6.82399C16.943 7.45692 16.0846 7.8125 15.1895 7.8125H11.8145C10.9193 7.8125 10.0609 7.45692 9.42797 6.82399C8.79503 6.19105 8.43945 5.33261 8.43945 4.4375Z" stroke="#00BAB5" stroke-width="1.5" stroke-linecap="round" stroke-linejoin="round"/>
</svg>
