<svg width="171" height="33" viewBox="0 0 171 33" fill="none" xmlns="http://www.w3.org/2000/svg">
<g clip-path="url(#clip0_265_2325)">
<path d="M67.5821 6.9877H64V23.151H73.9164V19.9839H67.5821V6.9877Z" fill="#D8DEE4"/>
<path d="M74.2578 17.6686C74.2578 21.1197 76.5731 23.4131 80.0678 23.4131C83.5407 23.4131 85.856 21.1197 85.856 17.6686C85.856 14.2175 83.5407 11.9022 80.0678 11.9022C76.5731 11.9022 74.2578 14.2175 74.2578 17.6686ZM77.6433 17.6467C77.6433 16.0086 78.6044 14.9165 80.0678 14.9165C81.5094 14.9165 82.4705 16.0086 82.4705 17.6467C82.4705 19.3068 81.5094 20.3989 80.0678 20.3989C78.6044 20.3989 77.6433 19.3068 77.6433 17.6467Z" fill="#D8DEE4"/>
<path d="M86.3972 17.4939C86.3972 20.792 88.5378 23.0199 91.5738 23.0199C93.0373 23.0199 94.3041 22.4957 94.9375 21.6439V23.151C94.9375 24.6581 93.9983 25.6628 92.3383 25.6628C90.853 25.6628 89.8264 24.9639 89.7609 23.7189H86.3535C86.6593 26.7113 88.9746 28.7207 92.1417 28.7207C95.8767 28.7207 98.2357 26.2963 98.2357 22.452V12.2299H95.1996L95.0249 13.3438C94.4133 12.4483 93.1246 11.8586 91.6394 11.8586C88.5814 11.8586 86.3972 14.152 86.3972 17.4939ZM89.8046 17.4065C89.8046 15.8338 90.853 14.7854 92.1854 14.7854C93.7362 14.7854 94.872 15.812 94.872 17.4065C94.872 19.001 93.758 20.0931 92.2072 20.0931C90.8749 20.0931 89.8046 19.001 89.8046 17.4065Z" fill="#D8DEE4"/>
<path d="M99.2168 17.6686C99.2168 21.1197 101.532 23.4131 105.027 23.4131C108.5 23.4131 110.815 21.1197 110.815 17.6686C110.815 14.2175 108.5 11.9022 105.027 11.9022C101.532 11.9022 99.2168 14.2175 99.2168 17.6686ZM102.602 17.6467C102.602 16.0086 103.563 14.9165 105.027 14.9165C106.468 14.9165 107.429 16.0086 107.429 17.6467C107.429 19.3068 106.468 20.3989 105.027 20.3989C103.563 20.3989 102.602 19.3068 102.602 17.6467Z" fill="#D8DEE4"/>
<path d="M113.715 10.5262C114.763 10.5262 115.615 9.67431 115.615 8.60404C115.615 7.53377 114.763 6.70377 113.715 6.70377C112.645 6.70377 111.793 7.53377 111.793 8.60404C111.793 9.67431 112.645 10.5262 113.715 10.5262ZM112.011 23.151H115.397V12.2299H112.011V23.151Z" fill="#D8DEE4"/>
<path d="M117.367 28.3931H120.687V22.0589C121.32 22.8889 122.762 23.4568 124.269 23.4568C127.523 23.4568 129.489 20.9668 129.402 17.5157C129.314 13.9991 127.283 11.8804 124.247 11.8804C122.696 11.8804 121.233 12.5575 120.621 13.5623L120.446 12.2299H117.367V28.3931ZM120.752 17.6904C120.752 16.0523 121.844 14.9602 123.417 14.9602C125.011 14.9602 126.016 16.0741 126.016 17.6904C126.016 19.3068 125.011 20.4207 123.417 20.4207C121.844 20.4207 120.752 19.3286 120.752 17.6904Z" fill="#D8DEE4"/>
<path d="M129.762 19.6999C129.849 21.906 131.597 23.4349 134.349 23.4349C136.992 23.4349 138.827 22.037 138.827 19.7873C138.827 18.171 137.866 17.1007 136.074 16.6638L134.131 16.1833C133.432 16.0086 132.995 15.8338 132.995 15.2659C132.995 14.698 133.453 14.3267 134.131 14.3267C134.895 14.3267 135.397 14.8291 135.376 15.5717H138.412C138.324 13.3001 136.599 11.8804 134.196 11.8804C131.772 11.8804 129.959 13.322 129.959 15.5062C129.959 16.9696 130.767 18.171 132.929 18.7389L134.851 19.2412C135.419 19.3941 135.659 19.6562 135.659 20.0275C135.659 20.5736 135.157 20.9231 134.305 20.9231C133.322 20.9231 132.798 20.4644 132.798 19.6999H129.762Z" fill="#D8DEE4"/>
<path d="M143.974 23.4349C145.307 23.4349 146.639 22.8233 147.316 21.9278L147.535 23.151H150.702V12.2299H147.338V17.9089C147.338 19.547 146.858 20.4425 145.307 20.4425C144.105 20.4425 143.319 19.8965 143.319 17.8652V12.2299H139.955V19.0883C139.955 21.6876 141.397 23.4349 143.974 23.4349Z" fill="#D8DEE4"/>
<path d="M156.036 23.151V17.1881C156.036 15.3533 157.019 14.8291 157.98 14.8291C159.05 14.8291 159.749 15.4844 159.749 16.8386V23.151H163.069V17.1881C163.069 15.3315 164.03 14.8073 164.991 14.8073C166.061 14.8073 166.782 15.4625 166.782 16.8386V23.151H170.059V16.0086C170.059 13.5186 168.748 11.8586 165.93 11.8586C164.358 11.8586 163.069 12.623 162.501 13.8025C161.846 12.623 160.71 11.8586 158.897 11.8586C157.696 11.8586 156.582 12.4046 155.927 13.2783L155.796 12.2299H152.65V23.151H156.036Z" fill="#D8DEE4"/>
<path d="M0 16.7038C0 7.86721 7.16344 0.703766 16 0.703766H37C45.8366 0.703766 53 7.86721 53 16.7038V32.7038H16C7.16344 32.7038 0 25.5404 0 16.7038Z" fill="#D8DEE4"/>
<path d="M37 6.70377H16C10.4772 6.70377 6 11.1809 6 16.7038C6 22.2266 10.4772 26.7038 16 26.7038H37C42.5228 26.7038 47 22.2266 47 16.7038C47 11.1809 42.5228 6.70377 37 6.70377Z" fill="#899AAB"/>
<path d="M16 21.7038C18.7614 21.7038 21 19.4652 21 16.7038C21 13.9423 18.7614 11.7038 16 11.7038C13.2386 11.7038 11 13.9423 11 16.7038C11 19.4652 13.2386 21.7038 16 21.7038Z" fill="white"/>
<path d="M14 15.7038C14.5523 15.7038 15 15.2561 15 14.7038C15 14.1515 14.5523 13.7038 14 13.7038C13.4477 13.7038 13 14.1515 13 14.7038C13 15.2561 13.4477 15.7038 14 15.7038Z" fill="white"/>
<path d="M38 21.7038C40.7614 21.7038 43 19.4652 43 16.7038C43 13.9423 40.7614 11.7038 38 11.7038C35.2386 11.7038 33 13.9423 33 16.7038C33 19.4652 35.2386 21.7038 38 21.7038Z" fill="white"/>
<path d="M36 15.7038C36.5523 15.7038 37 15.2561 37 14.7038C37 14.1515 36.5523 13.7038 36 13.7038C35.4477 13.7038 35 14.1515 35 14.7038C35 15.2561 35.4477 15.7038 36 15.7038Z" fill="white"/>
</g>
<defs>
<clipPath id="clip0_265_2325">
<rect width="171" height="32" fill="white" transform="translate(0 0.703766)"/>
</clipPath>
</defs>
</svg>
