<svg width="141" height="31" viewBox="0 0 141 31" fill="none" xmlns="http://www.w3.org/2000/svg">
<path d="M22.4835 14.0748C22.1045 14.4561 21.8143 14.9163 21.6335 15.4225C21.4527 15.9288 21.3858 16.4687 21.4375 17.0038L21.4195 16.9858C21.4727 17.6157 21.3877 18.2495 21.1706 18.8432C20.9535 19.4368 20.6095 19.9759 20.1626 20.4229C19.7156 20.8698 19.1765 21.2139 18.5828 21.4309C17.9892 21.648 17.3553 21.733 16.7255 21.6798L16.7435 21.6978C15.9901 21.6277 15.2334 21.7916 14.5765 22.1673C13.9197 22.543 13.3947 23.1121 13.0732 23.7971C12.7517 24.4821 12.6492 25.2495 12.7798 25.9949C12.9105 26.7402 13.2678 27.4271 13.8031 27.9619C14.3384 28.4967 15.0256 28.8534 15.771 28.9833C16.5165 29.1133 17.2838 29.0101 17.9685 28.688C18.6532 28.3658 19.2218 27.8404 19.5969 27.1832C19.972 26.526 20.1353 25.7692 20.0645 25.0158L20.0835 25.0338C20.0303 24.404 20.1152 23.7701 20.3323 23.1764C20.5494 22.5828 20.8935 22.0437 21.3404 21.5967C21.7874 21.1498 22.3265 20.8057 22.9201 20.5887C23.5138 20.3716 24.1476 20.2866 24.7775 20.3398L24.7585 20.3218C25.3739 20.3771 25.9934 20.2762 26.5595 20.0284C27.1255 19.7806 27.6199 19.3939 27.9967 18.9042C28.3735 18.4145 28.6207 17.8375 28.7151 17.2269C28.8096 16.6162 28.7484 15.9916 28.5372 15.4108C28.326 14.8301 27.9716 14.3121 27.5069 13.9048C27.0422 13.4975 26.4822 13.2141 25.8788 13.0809C25.2754 12.9477 24.6481 12.9689 24.0551 13.1426C23.4621 13.3164 22.9226 13.637 22.4865 14.0748H22.4835Z" fill="#899AAB"/>
<path d="M15.1056 19.3398L15.0866 19.3218C15.6219 19.3757 16.1625 19.31 16.6694 19.1294C17.1762 18.9488 17.6366 18.6579 18.0172 18.2776C18.3977 17.8973 18.6891 17.4371 18.87 16.9304C19.051 16.4237 19.1171 15.8832 19.0636 15.3478L19.0826 15.3658C19.0294 14.7359 19.1144 14.1021 19.3314 13.5084C19.5485 12.9148 19.8926 12.3757 20.3395 11.9287C20.7865 11.4818 21.3256 11.1377 21.9192 10.9207C22.5129 10.7035 23.1467 10.6186 23.7766 10.6718L23.7576 10.6538C24.5111 10.7246 25.268 10.5611 25.9252 10.1859C26.5825 9.8106 27.1079 9.24173 27.4299 8.55686C27.7519 7.872 27.8548 7.10447 27.7246 6.35896C27.5944 5.61345 27.2374 4.92627 26.7022 4.39113C26.1671 3.856 25.4799 3.49896 24.7344 3.36874C23.9889 3.23851 23.2214 3.34142 22.5365 3.66344C21.8516 3.98545 21.2828 4.5109 20.9075 5.16811C20.5322 5.82531 20.3688 6.58228 20.4396 7.33576L20.4216 7.31676C20.4749 7.94665 20.3901 8.58059 20.1731 9.17431C19.9561 9.76803 19.612 10.3072 19.1651 10.7543C18.7181 11.2012 18.1789 11.5453 17.5852 11.7623C16.9914 11.9793 16.3575 12.0641 15.7276 12.0108L15.7456 12.0298C15.2103 11.9759 14.6696 12.0416 14.1628 12.2222C13.656 12.4027 13.1956 12.6937 12.815 13.074C12.4344 13.4543 12.1431 13.9145 11.9621 14.4212C11.7812 14.9279 11.7151 15.4684 11.7686 16.0038L11.7506 15.9858C11.8036 16.6156 11.7185 17.2494 11.5014 17.843C11.2842 18.4365 10.9402 18.9756 10.4933 19.4225C10.0464 19.8694 9.50735 20.2134 8.91379 20.4306C8.32023 20.6477 7.68644 20.7328 7.05663 20.6798L7.07463 20.6978C6.32115 20.627 5.56418 20.7904 4.90697 21.1657C4.24977 21.541 3.72432 22.1098 3.40231 22.7947C3.08029 23.4796 2.97737 24.2471 3.1076 24.9926C3.23783 25.7381 3.59487 26.4253 4.13 26.9604C4.66514 27.4956 5.35232 27.8526 6.09783 27.9828C6.84334 28.113 7.61087 28.0101 8.29574 27.6881C8.9806 27.3661 9.54947 26.8407 9.92473 26.1835C10.3 25.5262 10.4634 24.7693 10.3926 24.0158L10.4116 24.0338C10.3584 23.4039 10.4434 22.7701 10.6605 22.1764C10.8775 21.5828 11.2216 21.0437 11.6685 20.5967C12.1155 20.1498 12.6546 19.8057 13.2482 19.5887C13.8419 19.3716 14.4757 19.2866 15.1056 19.3398Z" fill="#B1BCC7"/>
<path d="M8.40466 17.3328C8.78369 16.9516 9.07386 16.4914 9.25451 15.9851C9.43515 15.4788 9.50179 14.9388 9.44967 14.4038L9.46865 14.4218C9.41545 13.7918 9.50041 13.1577 9.71762 12.5639C9.93483 11.9701 10.2791 11.4309 10.7263 10.9839C11.1735 10.5369 11.7128 10.1929 12.3067 9.97595C12.9006 9.75899 13.5347 9.67429 14.1647 9.72777L14.1457 9.70977C14.8989 9.78034 15.6556 9.61685 16.3125 9.24161C16.9694 8.86638 17.4945 8.29765 17.8164 7.613C18.1382 6.92834 18.241 6.16109 18.1108 5.41586C17.9806 4.67063 17.6236 3.98371 17.0887 3.44877C16.5538 2.91383 15.8668 2.55691 15.1216 2.42669C14.3764 2.29646 13.6091 2.39928 12.9245 2.7211C12.2398 3.04292 11.6711 3.56809 11.2959 4.22499C10.9206 4.88189 10.7571 5.63855 10.8277 6.39177L10.8097 6.37377C10.8629 7.00362 10.7779 7.63749 10.5608 8.23113C10.3437 8.82477 9.99968 9.36388 9.55272 9.81084C9.10577 10.2578 8.56665 10.6018 7.97301 10.8189C7.37937 11.036 6.74551 11.121 6.11566 11.0678L6.13366 11.0858C5.51823 11.0306 4.89882 11.1317 4.33284 11.3796C3.76686 11.6275 3.27261 12.0143 2.8959 12.5041C2.51919 12.9938 2.27221 13.5708 2.17783 14.1814C2.08346 14.7921 2.14475 15.4167 2.35602 15.9973C2.56729 16.578 2.92172 17.0959 3.38645 17.5031C3.85118 17.9104 4.41118 18.1937 5.01456 18.3269C5.61793 18.46 6.24516 18.4387 6.83813 18.265C7.43109 18.0912 7.9706 17.7706 8.40666 17.3328H8.40466Z" fill="#D8DEE4"/>
<path d="M39.3809 7.35876H42.3509V21.8118H39.3809V7.35876Z" fill="white"/>
<path d="M44.0333 16.8628C44.0292 15.8242 44.3334 14.8076 44.9074 13.942C45.4814 13.0764 46.2994 12.4006 47.2578 12.0003C48.2162 11.5999 49.2718 11.493 50.291 11.6931C51.3102 11.8932 52.2471 12.3912 52.983 13.1242C53.7189 13.8571 54.2207 14.792 54.4249 15.8104C54.6291 16.8288 54.5264 17.8849 54.1299 18.8449C53.7334 19.8048 53.0609 20.6256 52.1976 21.203C51.3342 21.7805 50.319 22.0888 49.2803 22.0888C48.5909 22.0967 47.9068 21.967 47.268 21.7074C46.6292 21.4478 46.0486 21.0635 45.5601 20.577C45.0715 20.0904 44.6849 19.5113 44.4228 18.8736C44.1606 18.2359 44.0282 17.5523 44.0333 16.8628ZM51.5573 16.8628C51.5449 16.4151 51.4008 15.981 51.1431 15.6147C50.8853 15.2485 50.5253 14.9663 50.1081 14.8036C49.6908 14.6408 49.2349 14.6046 48.7972 14.6996C48.3595 14.7946 47.9595 15.0164 47.6472 15.3375C47.335 15.6585 47.1242 16.0645 47.0415 16.5047C46.9587 16.9448 47.0074 17.3996 47.1817 17.8122C47.356 18.2248 47.648 18.5768 48.0212 18.8243C48.3945 19.0718 48.8325 19.2038 49.2803 19.2038C49.587 19.212 49.8921 19.1565 50.1764 19.0409C50.4606 18.9253 50.7178 18.7521 50.9317 18.5322C51.1456 18.3122 51.3117 18.0503 51.4193 17.763C51.527 17.4757 51.574 17.1692 51.5573 16.8628Z" fill="white"/>
<path d="M66.3653 11.9128V21.3128C66.3653 24.6388 63.7713 26.0448 61.1383 26.0448C60.2113 26.1142 59.283 25.9269 58.4553 25.5036C57.6277 25.0802 56.9326 24.4371 56.4463 23.6448L58.9803 22.1798C59.1847 22.5928 59.5104 22.9335 59.9137 23.1564C60.3171 23.3792 60.7789 23.4736 61.2373 23.4268C61.5303 23.4674 61.8287 23.4416 62.1104 23.3513C62.392 23.261 62.6498 23.1085 62.8646 22.9052C63.0794 22.7018 63.2457 22.4528 63.3513 22.1764C63.4568 21.9001 63.4988 21.6036 63.4743 21.3088V20.4038C63.1265 20.8293 62.6839 21.1674 62.1818 21.3909C61.6797 21.6144 61.1323 21.7171 60.5833 21.6908C59.2771 21.6496 58.0382 21.1018 57.1288 20.1632C56.2194 19.2247 55.7109 17.9691 55.7109 16.6623C55.7109 15.3555 56.2194 14.0999 57.1288 13.1614C58.0382 12.2228 59.2771 11.675 60.5833 11.6338C61.1323 11.6075 61.6797 11.7102 62.1818 11.9337C62.6839 12.1572 63.1265 12.4953 63.4743 12.9208V11.9108L66.3653 11.9128ZM63.4753 16.6638C63.4953 16.1852 63.3715 15.7115 63.12 15.3038C62.8685 14.896 62.5007 14.5729 62.064 14.376C61.6273 14.179 61.1417 14.1173 60.6696 14.1987C60.1975 14.2801 59.7606 14.5009 59.415 14.8328C59.0695 15.1646 58.8312 15.5922 58.7307 16.0606C58.6303 16.529 58.6723 17.0168 58.8515 17.4611C59.0306 17.9054 59.3386 18.286 59.7358 18.5538C60.133 18.8216 60.6013 18.9644 61.0803 18.9638C61.3924 18.9856 61.7055 18.9418 61.9996 18.8352C62.2937 18.7286 62.5622 18.5615 62.7878 18.3449C63.0134 18.1282 63.1912 17.8667 63.3096 17.5771C63.428 17.2876 63.4845 16.9765 63.4753 16.6638Z" fill="white"/>
<path d="M68.047 16.8628C68.0429 15.8242 68.347 14.8076 68.9211 13.942C69.4951 13.0764 70.3131 12.4006 71.2715 12.0003C72.2299 11.5999 73.2855 11.493 74.3047 11.6931C75.3239 11.8932 76.2608 12.3912 76.9967 13.1242C77.7326 13.8571 78.2344 14.792 78.4386 15.8104C78.6428 16.8288 78.5401 17.8849 78.1436 18.8449C77.7471 19.8048 77.0746 20.6256 76.2113 21.203C75.3479 21.7805 74.3327 22.0888 73.294 22.0888C72.6046 22.0967 71.9204 21.967 71.2817 21.7074C70.6429 21.4478 70.0623 21.0635 69.5738 20.577C69.0852 20.0904 68.6986 19.5113 68.4365 18.8736C68.1743 18.2359 68.0419 17.5523 68.047 16.8628ZM75.571 16.8628C75.5586 16.4151 75.4145 15.981 75.1568 15.6147C74.899 15.2485 74.539 14.9663 74.1218 14.8036C73.7045 14.6408 73.2485 14.6046 72.8109 14.6996C72.3732 14.7946 71.9732 15.0164 71.6609 15.3375C71.3487 15.6585 71.1379 16.0645 71.0551 16.5047C70.9723 16.9448 71.0211 17.3996 71.1954 17.8122C71.3697 18.2248 71.6617 18.5768 72.0349 18.8243C72.4082 19.0718 72.8461 19.2038 73.294 19.2038C73.6007 19.212 73.9058 19.1565 74.19 19.0409C74.4743 18.9253 74.7315 18.7521 74.9454 18.5322C75.1593 18.3122 75.3254 18.0503 75.433 17.763C75.5407 17.4757 75.5877 17.1692 75.571 16.8628Z" fill="white"/>
<path d="M79.9258 9.25975C79.9258 8.9073 80.0303 8.56277 80.2261 8.26973C80.4219 7.97668 80.7003 7.74827 81.0259 7.6134C81.3515 7.47852 81.7098 7.44323 82.0555 7.51199C82.4011 7.58075 82.7187 7.75047 82.9679 7.99969C83.2171 8.2489 83.3868 8.56642 83.4556 8.9121C83.5243 9.25777 83.489 9.61607 83.3542 9.94169C83.2193 10.2673 82.9909 10.5456 82.6978 10.7415C82.4048 10.9373 82.0603 11.0418 81.7078 11.0418C81.2367 11.0371 80.7861 10.8479 80.4529 10.5146C80.1198 10.1815 79.9305 9.73091 79.9258 9.25975ZM80.2258 11.9128H83.1968V21.8128H80.2218L80.2258 11.9128Z" fill="white"/>
<path d="M96.0201 16.8628C96.0544 17.5171 95.9591 18.1717 95.7395 18.789C95.52 19.4063 95.1806 19.9741 94.7408 20.4598C94.3011 20.9454 93.7696 21.3394 93.1771 21.619C92.5845 21.8985 91.9426 22.0582 91.2881 22.0888C90.7377 22.1188 90.1876 22.026 89.6775 21.8171C89.1674 21.6081 88.7103 21.2883 88.3391 20.8808V25.7718H85.3691V11.9128H88.3391V12.8428C88.7104 12.4356 89.1677 12.116 89.6777 11.9073C90.1878 11.6985 90.7378 11.6058 91.2881 11.6358C91.9427 11.6663 92.5848 11.8259 93.1775 12.1055C93.7702 12.3851 94.3017 12.7791 94.7415 13.2649C95.1813 13.7507 95.5207 14.3187 95.7401 14.9362C95.9595 15.5536 96.0547 16.2084 96.0201 16.8628ZM93.0501 16.8628C93.0385 16.3995 92.8905 15.9499 92.6246 15.5702C92.3587 15.1906 91.9868 14.8978 91.5554 14.7286C91.1239 14.5593 90.6521 14.521 90.199 14.6186C89.7459 14.7161 89.3317 14.9451 89.0081 15.2769C88.6845 15.6088 88.466 16.0286 88.3799 16.4841C88.2938 16.9395 88.3439 17.4101 88.524 17.8372C88.704 18.2643 89.0061 18.6287 89.3923 18.885C89.7785 19.1412 90.2316 19.2779 90.6951 19.2778C91.0133 19.292 91.3309 19.2387 91.6271 19.1215C91.9232 19.0044 92.1913 18.8259 92.4136 18.5979C92.636 18.3698 92.8076 18.0974 92.9173 17.7984C93.027 17.4994 93.0723 17.1805 93.0501 16.8628Z" fill="white"/>
<path d="M105.185 18.8418C105.185 21.1188 103.206 22.0888 101.068 22.0888C100.204 22.167 99.3362 21.9844 98.5773 21.5643C97.8184 21.1443 97.203 20.5063 96.8105 19.7328L99.3835 18.2678C99.4876 18.6253 99.7112 18.9364 100.017 19.1489C100.323 19.3615 100.693 19.4628 101.064 19.4358C101.776 19.4358 102.133 19.2178 102.133 18.8228C102.133 17.7328 97.2615 18.3078 97.2615 14.8828C97.2615 12.7238 99.0835 11.6358 101.143 11.6358C101.917 11.6113 102.683 11.7949 103.362 12.1674C104.041 12.54 104.608 13.0878 105.003 13.7538L102.469 15.1198C102.358 14.8605 102.173 14.6396 101.937 14.4847C101.701 14.3298 101.425 14.2478 101.143 14.2488C100.628 14.2488 100.311 14.4488 100.311 14.8028C100.315 15.9318 105.185 15.1788 105.185 18.8418Z" fill="white"/>
<path d="M116.035 11.9128V21.8128H113.065V20.8818C112.722 21.2926 112.287 21.6163 111.795 21.8263C111.303 22.0363 110.769 22.1266 110.235 22.0898C108.235 22.0898 106.535 20.6648 106.535 17.9898V11.9128H109.505V17.5548C109.48 17.7906 109.507 18.029 109.584 18.2533C109.66 18.4777 109.785 18.6827 109.949 18.854C110.113 19.0253 110.312 19.1588 110.533 19.2453C110.753 19.3318 110.99 19.3692 111.227 19.3548C112.316 19.3548 113.068 18.7218 113.068 17.3158V11.9158L116.035 11.9128Z" fill="white"/>
<path d="M133.064 15.7338V21.8118H130.094V15.9908C130.094 15.0008 129.619 14.3678 128.669 14.3678C127.679 14.3678 127.124 15.0608 127.124 16.2288V21.8118H124.155V15.9908C124.155 15.0008 123.68 14.3678 122.729 14.3678C121.739 14.3678 121.185 15.0608 121.185 16.2288V21.8118H118.215V11.9118H121.185V12.8218C121.493 12.4181 121.897 12.0979 122.36 11.8906C122.824 11.6832 123.332 11.5953 123.838 11.6348C124.346 11.6099 124.852 11.7172 125.307 11.9461C125.761 12.1749 126.148 12.5177 126.431 12.9408C126.76 12.4981 127.196 12.1461 127.698 11.9177C128.2 11.6893 128.752 11.592 129.302 11.6348C131.575 11.6358 133.064 13.2588 133.064 15.7338Z" fill="white"/>
<path d="M135.577 11.8518C136.794 11.8518 137.781 10.865 137.781 9.64776C137.781 8.43052 136.794 7.44376 135.577 7.44376C134.36 7.44376 133.373 8.43052 133.373 9.64776C133.373 10.865 134.36 11.8518 135.577 11.8518Z" fill="white"/>
</svg>
