<svg width="139" height="37" viewBox="0 0 139 37" fill="none" xmlns="http://www.w3.org/2000/svg">
<path d="M11.606 33.3585L8.35352 27.7251L13.1267 19.4805L16.1598 24.7344L34.065 24.7248L28.9843 33.4363L11.606 33.3585Z" fill="#899AAB"/>
<path d="M37.2631 19.131L34.0107 24.7643L24.4841 24.7531L27.5175 19.4993L18.5566 3.99771L28.6413 4.04196L37.2631 19.131Z" fill="#B1BCC7"/>
<path d="M12.1081 3.96771H18.613L23.3665 12.2238L17.2998 12.2235L8.35564 27.7347L3.35156 18.979L12.1081 3.96771Z" fill="#D8DEE4"/>
<path fill-rule="evenodd" clip-rule="evenodd" d="M19.4061 2.66338L19.3867 2.62973H11.3397L1.80664 18.9722L8.35058 30.4222L8.35861 30.4083L10.8325 34.6932L29.7519 34.7778L36.396 23.3855H36.3518L38.8062 19.1344L29.4198 2.70731L19.4061 2.66338ZM25.6309 13.5618H25.6811L20.9508 5.34629L27.8629 5.3766L35.7201 19.1275L33.2608 23.3873L26.8158 23.3907L29.0629 19.4988L25.6309 13.5618ZM17.7674 5.30579L20.9928 10.8856L16.527 10.8855L8.88145 24.1444L8.35993 25.0453L4.8968 18.9858L12.8768 5.30579H17.7674ZM14.6663 19.4694L18.0729 13.5616L22.5399 13.5618L25.9723 19.4996L23.7247 23.3924L16.9332 23.3961L14.6663 19.4694ZM9.90267 27.7305L11.1987 25.483L13.126 22.1539L15.3885 26.073L22.179 26.0693L22.168 26.0883L31.7152 26.0996L28.2187 32.0949L12.3815 32.024L9.90267 27.7305Z" fill="white"/>
<path d="M87.5452 12.4226C88.4616 12.4226 89.2061 11.678 89.2061 10.7426C89.2061 9.80708 88.4616 9.08163 87.5452 9.08163C86.6098 9.08163 85.8652 9.80708 85.8652 10.7426C85.8652 11.678 86.6098 12.4226 87.5452 12.4226ZM86.0561 23.4571H89.0152V13.9117H86.0561V23.4571Z" fill="#D8DEE4"/>
<path d="M90.7363 28.039H93.6382V22.5026C94.1918 23.2281 95.4518 23.7244 96.7691 23.7244C99.6136 23.7244 101.332 21.5481 101.256 18.5317C101.179 15.458 99.4036 13.6062 96.75 13.6062C95.3945 13.6062 94.1154 14.198 93.5809 15.0762L93.4282 13.9117H90.7363V28.039ZM93.6954 18.6844C93.6954 17.2526 94.65 16.2981 96.0245 16.2981C97.4182 16.2981 98.2964 17.2717 98.2964 18.6844C98.2964 20.0971 97.4182 21.0708 96.0245 21.0708C94.65 21.0708 93.6954 20.1162 93.6954 18.6844Z" fill="#D8DEE4"/>
<path d="M101.57 20.4408C101.646 22.369 103.174 23.7053 105.579 23.7053C107.889 23.7053 109.493 22.4835 109.493 20.5171C109.493 19.1044 108.653 18.169 107.087 17.7871L105.388 17.3671C104.777 17.2144 104.395 17.0617 104.395 16.5653C104.395 16.069 104.796 15.7444 105.388 15.7444C106.056 15.7444 106.495 16.1835 106.476 16.8326H109.13C109.054 14.8471 107.545 13.6062 105.445 13.6062C103.326 13.6062 101.742 14.8662 101.742 16.7753C101.742 18.0544 102.448 19.1044 104.338 19.6008L106.018 20.0399C106.514 20.1735 106.724 20.4026 106.724 20.7271C106.724 21.2044 106.285 21.5099 105.541 21.5099C104.682 21.5099 104.224 21.109 104.224 20.4408H101.57Z" fill="#D8DEE4"/>
<path d="M113.993 23.7053C115.157 23.7053 116.322 23.1708 116.914 22.3881L117.105 23.4571H119.873V13.9117H116.933V18.8753C116.933 20.3071 116.513 21.0899 115.157 21.0899C114.107 21.0899 113.42 20.6126 113.42 18.8371V13.9117H110.48V19.9062C110.48 22.1781 111.74 23.7053 113.993 23.7053Z" fill="#D8DEE4"/>
<path d="M124.535 23.4571V18.2453C124.535 16.6417 125.394 16.1835 126.234 16.1835C127.17 16.1835 127.781 16.7562 127.781 17.9399V23.4571H130.682V18.2453C130.682 16.6226 131.522 16.1644 132.362 16.1644C133.298 16.1644 133.928 16.7371 133.928 17.9399V23.4571H136.791V17.2144C136.791 15.038 135.646 13.5871 133.183 13.5871C131.809 13.5871 130.682 14.2553 130.186 15.2862C129.613 14.2553 128.621 13.5871 127.036 13.5871C125.986 13.5871 125.012 14.0644 124.44 14.828L124.325 13.9117H121.576V23.4571H124.535Z" fill="#D8DEE4"/>
<path d="M47.2227 9.33127H44.0918V23.4586H52.7591V20.6904H47.2227V9.33127Z" fill="white"/>
<path d="M53.0586 18.6668C53.0586 21.6831 55.0823 23.6877 58.1368 23.6877C61.1723 23.6877 63.1959 21.6831 63.1959 18.6668C63.1959 15.6504 61.1723 13.6267 58.1368 13.6267C55.0823 13.6267 53.0586 15.6504 53.0586 18.6668ZM56.0177 18.6477C56.0177 17.2158 56.8577 16.2613 58.1368 16.2613C59.3968 16.2613 60.2368 17.2158 60.2368 18.6477C60.2368 20.0986 59.3968 21.0531 58.1368 21.0531C56.8577 21.0531 56.0177 20.0986 56.0177 18.6477Z" fill="white"/>
<path d="M63.669 18.514C63.669 21.3968 65.54 23.344 68.1936 23.344C69.4727 23.344 70.58 22.8859 71.1336 22.1413V23.4586C71.1336 24.7759 70.3127 25.654 68.8618 25.654C67.5636 25.654 66.6663 25.0431 66.609 23.9549H63.6309C63.8981 26.5704 65.9218 28.3268 68.69 28.3268C71.9545 28.3268 74.0163 26.2077 74.0163 22.8477V13.9131H71.3627L71.21 14.8868C70.6754 14.104 69.5491 13.5886 68.2509 13.5886C65.5781 13.5886 63.669 15.5931 63.669 18.514ZM66.6472 18.4377C66.6472 17.0631 67.5636 16.1468 68.7281 16.1468C70.0836 16.1468 71.0763 17.044 71.0763 18.4377C71.0763 19.8313 70.1027 20.7858 68.7472 20.7858C67.5827 20.7858 66.6472 19.8313 66.6472 18.4377Z" fill="white"/>
<path d="M74.873 18.6668C74.873 21.6831 76.8966 23.6877 79.9512 23.6877C82.9866 23.6877 85.0103 21.6831 85.0103 18.6668C85.0103 15.6504 82.9866 13.6267 79.9512 13.6267C76.8966 13.6267 74.873 15.6504 74.873 18.6668ZM77.8321 18.6477C77.8321 17.2158 78.6721 16.2613 79.9512 16.2613C81.2112 16.2613 82.0512 17.2158 82.0512 18.6477C82.0512 20.0986 81.2112 21.0531 79.9512 21.0531C78.6721 21.0531 77.8321 20.0986 77.8321 18.6477Z" fill="white"/>
</svg>
