<svg width="148" height="47" viewBox="0 0 148 47" fill="none" xmlns="http://www.w3.org/2000/svg">
<path fill-rule="evenodd" clip-rule="evenodd" d="M73.5064 8.11124C74.8942 6.72354 77.1442 6.72354 78.532 8.11124C79.9198 9.49904 79.9198 11.7491 78.532 13.1369L70.0711 21.5978C67.6419 18.3422 67.9058 13.712 70.8628 10.755L73.5064 8.11124Z" fill="#B1BCC7"/>
<path fill-rule="evenodd" clip-rule="evenodd" d="M85.6013 27.2005C86.9893 28.5882 86.9893 30.8383 85.6013 32.226C84.2143 33.6138 81.9639 33.6138 80.5761 32.226L72.1152 23.7652C75.3708 21.336 80.001 21.5998 82.958 24.5568L85.6013 27.2005Z" fill="#D8DEE4"/>
<path fill-rule="evenodd" clip-rule="evenodd" d="M66.5117 39.2962C65.124 40.684 62.8739 40.684 61.4862 39.2962C60.0984 37.9084 60.0984 35.6584 61.4862 34.2706L69.947 25.8098C72.3762 29.0654 72.1124 33.6956 69.1554 36.6525L66.5117 39.2962Z" fill="#899AAB"/>
<path fill-rule="evenodd" clip-rule="evenodd" d="M54.4158 20.207C53.028 18.8192 53.028 16.5692 54.4158 15.1814C55.8036 13.7936 58.0537 13.7936 59.4415 15.1814L67.9023 23.6423C64.6467 26.0715 60.0165 25.8076 57.0596 22.8507L54.4158 20.207Z" fill="#D8DEE4"/>
<path fill-rule="evenodd" clip-rule="evenodd" d="M71.6152 38.26C73.6615 35.9848 74.6126 33.0735 74.4683 30.2071L78.5317 34.2705C78.5418 34.2806 78.552 34.2907 78.5622 34.3008V37.2018C78.5622 39.1644 76.9712 40.7554 75.0086 40.7554C73.4145 40.7554 72.0656 39.7058 71.6152 38.26Z" fill="#D8DEE4"/>
<path fill-rule="evenodd" clip-rule="evenodd" d="M55.4524 25.3096C57.7275 27.356 60.6388 28.3071 63.5052 28.1628L59.4419 32.2262C59.4317 32.2363 59.4216 32.2465 59.4116 32.2566H56.5106C54.548 32.2567 52.957 30.6656 52.957 28.703C52.957 27.109 54.0066 25.76 55.4524 25.3096Z" fill="#B1BCC7"/>
<path fill-rule="evenodd" clip-rule="evenodd" d="M84.5643 22.098C82.2894 20.0516 79.3781 19.1005 76.5117 19.2447L80.575 15.1814C80.5852 15.1713 80.5952 15.1611 80.6053 15.1509H83.5064C85.4693 15.1509 87.0603 16.742 87.0603 18.7046C87.0603 20.2987 86.0103 21.6476 84.5643 22.098Z" fill="#899AAB"/>
<path fill-rule="evenodd" clip-rule="evenodd" d="M68.404 9.14745C66.3576 11.4226 65.4066 14.3339 65.5508 17.2004L61.4875 13.137C61.4773 13.1269 61.4672 13.1168 61.457 13.1067V10.2056C61.457 8.24305 63.048 6.65195 65.0106 6.65195C66.6047 6.65195 67.9536 7.70165 68.404 9.14745Z" fill="#D8DEE4"/>
<path fill-rule="evenodd" clip-rule="evenodd" d="M65.0101 3.76077C61.4507 3.76077 58.5652 6.64627 58.5652 10.2057V11.4592C56.4238 10.8997 54.0506 11.4589 52.3725 13.137C49.8556 15.6539 49.8556 19.7346 52.3725 22.2515L53.2588 23.1378C51.349 24.2564 50.0664 26.3299 50.0664 28.703C50.0664 32.2624 52.9519 35.1479 56.5113 35.1479H57.7647C57.2052 37.2893 57.7644 39.6625 59.4425 41.3405C61.9594 43.8574 66.0401 43.8574 68.557 41.3405L71.2006 38.6969C73.5327 36.3648 74.6219 33.2604 74.4682 30.207L78.5317 34.2704C81.0486 36.7873 85.1294 36.7873 87.6464 34.2704C90.1634 31.7535 90.1634 27.6728 87.6464 25.156L86.7604 24.2698C88.6694 23.1512 89.9524 21.0777 89.9524 18.7046C89.9524 15.1452 87.0664 12.2597 83.5074 12.2597H82.2539C82.8135 10.1182 82.2542 7.74497 80.5761 6.06687C78.0593 3.54997 73.9786 3.54997 71.4617 6.06687L68.818 8.71057C66.4859 11.0427 65.3967 14.147 65.5504 17.2004L61.487 13.137C61.4768 13.1269 61.4667 13.1168 61.4565 13.1067V10.2057C61.4565 8.24307 63.0475 6.65207 65.0101 6.65207C66.6042 6.65207 67.9531 7.70167 68.4035 9.14747C68.537 8.99907 68.6751 8.85337 68.8179 8.71057L70.5753 6.95317C69.4567 5.04337 67.3832 3.76077 65.0101 3.76077ZM80.6064 15.151C80.5963 15.1611 80.5863 15.1713 80.5761 15.1814L76.5128 19.2447C79.3793 19.1005 82.2905 20.0515 84.5654 22.098C86.0114 21.6476 87.0614 20.2986 87.0614 18.7046C87.0614 16.742 85.4704 15.151 83.5074 15.151H80.6064ZM59.4121 32.2566C59.4222 32.2464 59.4323 32.2362 59.4425 32.2261L63.5058 28.1627C60.6394 28.307 57.7282 27.3559 55.4531 25.3096C54.0073 25.76 52.9576 27.1089 52.9576 28.703C52.9576 30.6656 54.5487 32.2566 56.5113 32.2566H59.4121ZM55.3423 25.2086C55.232 25.1067 55.1233 25.0022 55.0162 24.8951V24.8952C55.1233 25.0023 55.232 25.1067 55.3423 25.2086ZM75.0086 43.6468C72.6354 43.6468 70.5619 42.3641 69.4433 40.4543L71.2006 38.6969C71.3435 38.5541 71.4816 38.4084 71.6151 38.26C72.0655 39.7058 73.4144 40.7555 75.0086 40.7555C76.9712 40.7555 78.5622 39.1645 78.5622 37.2019V34.3009C79.395 35.1228 80.396 35.672 81.4535 35.9483V37.2019C81.4535 40.7613 78.568 43.6468 75.0086 43.6468ZM78.5317 8.11127C77.1439 6.72357 74.8939 6.72357 73.5061 8.11127L70.8624 10.755C67.9055 13.712 67.6416 18.3422 70.0708 21.5978L78.5317 13.1369C79.9195 11.7491 79.9195 9.49907 78.5317 8.11127ZM85.6014 32.226C86.9894 30.8382 86.9894 28.5882 85.6014 27.2004L82.958 24.5567C80.0011 21.5998 75.3708 21.3359 72.1152 23.7651L80.5761 32.226C81.9639 33.6138 84.2144 33.6138 85.6014 32.226ZM66.5125 39.2961C65.1247 40.6839 62.8747 40.6839 61.4869 39.2961C60.0992 37.9083 60.0992 35.6583 61.4869 34.2705L69.9478 25.8096C72.377 29.0652 72.1131 33.6955 69.1562 36.6524L66.5125 39.2961ZM54.4169 15.1814C53.0292 16.5692 53.0292 18.8192 54.4169 20.207L57.0606 22.8507C60.0176 25.8076 64.6478 26.0715 67.9034 23.6423L59.4425 15.1814C58.0547 13.7937 55.8047 13.7937 54.4169 15.1814Z" fill="white"/>
<path d="M2.36328 16.7936H5.52388V26.6148H10.9523V29.2754H2.36328V16.7936Z" fill="white"/>
<path d="M16.6899 29.5433C15.6304 29.5433 14.7018 29.3528 13.9042 28.9719C13.1066 28.579 12.4876 28.0433 12.0471 27.3648C11.6186 26.6743 11.4043 25.8827 11.4043 24.9898C11.4043 24.097 11.6186 23.3113 12.0471 22.6328C12.4876 21.9423 13.1066 21.4066 13.9042 21.0257C14.7018 20.6328 15.6304 20.4364 16.6899 20.4364C17.7494 20.4364 18.6779 20.6328 19.4755 21.0257C20.2731 21.4066 20.8862 21.9423 21.3147 22.6328C21.7552 23.3113 21.9754 24.097 21.9754 24.9898C21.9754 25.8827 21.7552 26.6743 21.3147 27.3648C20.8862 28.0433 20.2731 28.579 19.4755 28.9719C18.6779 29.3528 17.7494 29.5433 16.6899 29.5433ZM16.6899 27.0969C17.3208 27.0969 17.8208 26.9124 18.1898 26.5434C18.5708 26.1624 18.7612 25.6446 18.7612 24.9898C18.7612 24.3351 18.5708 23.8232 18.1898 23.4542C17.8208 23.0732 17.3208 22.8828 16.6899 22.8828C16.0589 22.8828 15.553 23.0732 15.1721 23.4542C14.803 23.8232 14.6185 24.3351 14.6185 24.9898C14.6185 25.6446 14.803 26.1624 15.1721 26.5434C15.553 26.9124 16.0589 27.0969 16.6899 27.0969Z" fill="white"/>
<path d="M27.879 33.3825C27.3076 33.3825 26.7302 33.3289 26.1469 33.2218C25.5755 33.1146 25.0814 32.9718 24.6648 32.7932V30.6147C25.6052 31.0194 26.6766 31.2218 27.879 31.2218C28.748 31.2218 29.373 31.0432 29.7539 30.6861C30.1468 30.329 30.3432 29.8052 30.3432 29.1147V28.5969C29.998 28.8945 29.5694 29.1266 29.0575 29.2933C28.5575 29.46 28.0218 29.5433 27.4504 29.5433C26.5457 29.5433 25.7481 29.3528 25.0576 28.9719C24.3672 28.5909 23.8255 28.0552 23.4327 27.3648C23.0517 26.6743 22.8613 25.8827 22.8613 24.9898C22.8613 24.0851 23.0517 23.2875 23.4327 22.5971C23.8136 21.9066 24.3493 21.3768 25.0398 21.0078C25.7302 20.6269 26.5219 20.4364 27.4147 20.4364C28.6409 20.4364 29.6527 20.8114 30.4503 21.5614V20.7042H33.486V28.6862C33.486 30.1742 33.0276 31.329 32.111 32.1504C31.2063 32.9718 29.7956 33.3825 27.879 33.3825ZM28.2361 27.1148C28.7242 27.1148 29.1587 26.9898 29.5396 26.7398C29.9206 26.4898 30.1884 26.1565 30.3432 25.7398V24.2399C30.1765 23.8232 29.9027 23.4958 29.5218 23.2577C29.1408 23.0078 28.7123 22.8828 28.2361 22.8828C27.5933 22.8828 27.0754 23.0732 26.6826 23.4542C26.2897 23.8232 26.0933 24.3291 26.0933 24.972C26.0933 25.6267 26.2897 26.1505 26.6826 26.5434C27.0754 26.9243 27.5933 27.1148 28.2361 27.1148Z" fill="white"/>
<path d="M39.5688 29.5433C38.5093 29.5433 37.5808 29.3528 36.7832 28.9719C35.9856 28.579 35.3665 28.0433 34.9261 27.3648C34.4975 26.6743 34.2832 25.8827 34.2832 24.9898C34.2832 24.097 34.4975 23.3113 34.9261 22.6328C35.3665 21.9423 35.9856 21.4066 36.7832 21.0257C37.5808 20.6328 38.5093 20.4364 39.5688 20.4364C40.6283 20.4364 41.5568 20.6328 42.3544 21.0257C43.152 21.4066 43.7651 21.9423 44.1937 22.6328C44.6341 23.3113 44.8544 24.097 44.8544 24.9898C44.8544 25.8827 44.6341 26.6743 44.1937 27.3648C43.7651 28.0433 43.152 28.579 42.3544 28.9719C41.5568 29.3528 40.6283 29.5433 39.5688 29.5433ZM39.5688 27.0969C40.1997 27.0969 40.6997 26.9124 41.0688 26.5434C41.4497 26.1624 41.6402 25.6446 41.6402 24.9898C41.6402 24.3351 41.4497 23.8232 41.0688 23.4542C40.6997 23.0732 40.1997 22.8828 39.5688 22.8828C38.9379 22.8828 38.4319 23.0732 38.051 23.4542C37.6819 23.8232 37.4974 24.3351 37.4974 24.9898C37.4974 25.6446 37.6819 26.1624 38.051 26.5434C38.4319 26.9124 38.9379 27.0969 39.5688 27.0969Z" fill="white"/>
<path d="M95.2617 16.7936H98.4227V29.2754H95.2617V16.7936Z" fill="white"/>
<path d="M100.023 20.7042H103.059V21.5614C103.856 20.8114 104.868 20.4364 106.094 20.4364C106.987 20.4364 107.779 20.6269 108.469 21.0078C109.16 21.3768 109.695 21.9066 110.076 22.5971C110.457 23.2756 110.648 24.0673 110.648 24.972C110.648 25.8648 110.457 26.6624 110.076 27.3648C109.695 28.0552 109.16 28.5909 108.469 28.9719C107.791 29.3528 106.999 29.5433 106.094 29.5433C105.523 29.5433 104.975 29.454 104.452 29.2754C103.94 29.1088 103.511 28.8766 103.166 28.579V33.186H100.023V20.7042ZM105.273 27.0969C105.916 27.0969 106.434 26.9065 106.826 26.5255C107.219 26.1446 107.416 25.6267 107.416 24.972C107.416 24.3172 107.219 23.8054 106.826 23.4363C106.434 23.0554 105.916 22.8649 105.273 22.8649C104.797 22.8649 104.368 22.9899 103.987 23.2399C103.606 23.478 103.333 23.8054 103.166 24.222V25.7398C103.333 26.1565 103.606 26.4898 103.987 26.7398C104.368 26.9779 104.797 27.0969 105.273 27.0969Z" fill="white"/>
<path d="M115.332 29.5433C114.642 29.5433 113.922 29.4719 113.172 29.329C112.422 29.1981 111.826 29.0076 111.386 28.7576V26.4541C111.874 26.7398 112.457 26.9779 113.136 27.1684C113.826 27.3469 114.457 27.4362 115.029 27.4362C115.445 27.4362 115.749 27.4064 115.939 27.3469C116.13 27.2874 116.225 27.1684 116.225 26.9898C116.225 26.8469 116.16 26.7338 116.029 26.6505C115.91 26.5553 115.683 26.46 115.35 26.3648C115.029 26.2577 114.654 26.1446 114.225 26.0255C113.499 25.8112 112.928 25.591 112.511 25.3648C112.094 25.1386 111.785 24.8529 111.582 24.5077C111.38 24.1625 111.279 23.728 111.279 23.2042C111.279 22.2756 111.642 21.5852 112.368 21.1328C113.106 20.6685 114.112 20.4364 115.386 20.4364C116.005 20.4364 116.654 20.5019 117.332 20.6328C118.023 20.7638 118.54 20.9364 118.886 21.1507V23.4185C118.529 23.1804 118.052 22.9839 117.457 22.8292C116.874 22.6744 116.326 22.5971 115.814 22.5971C115.41 22.5971 115.094 22.6387 114.868 22.722C114.642 22.7935 114.529 22.9244 114.529 23.1149C114.529 23.2935 114.642 23.4304 114.868 23.5256C115.094 23.6208 115.499 23.7399 116.082 23.8827C116.463 23.978 116.624 24.0196 116.564 24.0077C117.326 24.2101 117.915 24.4363 118.332 24.6863C118.749 24.9363 119.04 25.2339 119.207 25.5791C119.386 25.9124 119.475 26.341 119.475 26.8648C119.475 27.6862 119.118 28.3409 118.404 28.829C117.701 29.3052 116.677 29.5433 115.332 29.5433Z" fill="white"/>
<path d="M124.168 29.5433C122.99 29.5433 122.103 29.2159 121.508 28.5612C120.925 27.9064 120.633 27.0434 120.633 25.972V20.7042H123.776V25.6148C123.776 26.6029 124.222 27.0969 125.115 27.0969C125.52 27.0969 125.889 27.0017 126.222 26.8112C126.555 26.6207 126.829 26.341 127.043 25.972V20.7042H130.186V29.2754H127.151V28.3469C126.782 28.7397 126.335 29.0373 125.811 29.2397C125.288 29.4421 124.74 29.5433 124.168 29.5433Z" fill="white"/>
<path d="M131.795 20.7042H134.706V21.6328C135.063 21.2519 135.474 20.9602 135.938 20.7578C136.402 20.5435 136.896 20.4364 137.42 20.4364C138.063 20.4364 138.575 20.5316 138.956 20.7221C139.349 20.9126 139.664 21.1983 139.902 21.5792C140.259 21.2221 140.694 20.9423 141.206 20.74C141.718 20.5376 142.236 20.4364 142.759 20.4364C143.89 20.4364 144.694 20.7281 145.17 21.3114C145.646 21.8828 145.884 22.7101 145.884 23.7934V29.2754H142.884V24.2399C142.884 23.7637 142.795 23.4185 142.616 23.2042C142.438 22.9899 142.14 22.8828 141.724 22.8828C141.188 22.8828 140.753 23.0732 140.42 23.4542C140.432 23.6565 140.438 23.9661 140.438 24.3827V29.2754H137.438V24.1149C137.438 23.6744 137.361 23.3589 137.206 23.1685C137.051 22.978 136.777 22.8828 136.385 22.8828C135.777 22.8828 135.254 23.222 134.813 23.9006V29.2754H131.795V20.7042Z" fill="white"/>
</svg>
