<svg width="156" height="41" viewBox="0 0 156 41" fill="none" xmlns="http://www.w3.org/2000/svg">
<g clip-path="url(#clip0_265_2341)">
<path d="M52.3477 10.9877H48.7656V27.151H58.682V23.9839H52.3477V10.9877Z" fill="#D8DEE4"/>
<path d="M59.0234 21.6686C59.0234 25.1197 61.3387 27.4131 64.8334 27.4131C68.3063 27.4131 70.6216 25.1197 70.6216 21.6686C70.6216 18.2175 68.3063 15.9022 64.8334 15.9022C61.3387 15.9022 59.0234 18.2175 59.0234 21.6686ZM62.4089 21.6467C62.4089 20.0086 63.37 18.9165 64.8334 18.9165C66.275 18.9165 67.2361 20.0086 67.2361 21.6467C67.2361 23.3068 66.275 24.3989 64.8334 24.3989C63.37 24.3989 62.4089 23.3068 62.4089 21.6467Z" fill="#D8DEE4"/>
<path d="M71.1628 21.4939C71.1628 24.792 73.3034 27.0199 76.3394 27.0199C77.8029 27.0199 79.0697 26.4957 79.7031 25.6439V27.151C79.7031 28.6581 78.7639 29.6628 77.1039 29.6628C75.6186 29.6628 74.592 28.9639 74.5265 27.7189H71.1191C71.4249 30.7113 73.7402 32.7207 76.9073 32.7207C80.6423 32.7207 83.0013 30.2963 83.0013 26.452V16.2299H79.9652L79.7905 17.3438C79.1789 16.4483 77.8902 15.8586 76.405 15.8586C73.347 15.8586 71.1628 18.152 71.1628 21.4939ZM74.5702 21.4065C74.5702 19.8338 75.6186 18.7854 76.951 18.7854C78.5018 18.7854 79.6376 19.812 79.6376 21.4065C79.6376 23.001 78.5236 24.0931 76.9728 24.0931C75.6405 24.0931 74.5702 23.001 74.5702 21.4065Z" fill="#D8DEE4"/>
<path d="M83.9824 21.6686C83.9824 25.1197 86.2977 27.4131 89.7925 27.4131C93.2654 27.4131 95.5806 25.1197 95.5806 21.6686C95.5806 18.2175 93.2654 15.9022 89.7925 15.9022C86.2977 15.9022 83.9824 18.2175 83.9824 21.6686ZM87.368 21.6467C87.368 20.0086 88.329 18.9165 89.7925 18.9165C91.234 18.9165 92.1951 20.0086 92.1951 21.6467C92.1951 23.3068 91.234 24.3989 89.7925 24.3989C88.329 24.3989 87.368 23.3068 87.368 21.6467Z" fill="#D8DEE4"/>
<path d="M98.4807 14.5262C99.5291 14.5262 100.381 13.6743 100.381 12.6041C100.381 11.5338 99.5291 10.7038 98.4807 10.7038C97.4104 10.7038 96.5586 11.5338 96.5586 12.6041C96.5586 13.6743 97.4104 14.5262 98.4807 14.5262ZM96.777 27.151H100.163V16.2299H96.777V27.151Z" fill="#D8DEE4"/>
<path d="M102.133 32.3931H105.453V26.0589C106.086 26.8889 107.528 27.4568 109.035 27.4568C112.289 27.4568 114.255 24.9668 114.168 21.5157C114.08 17.9991 112.049 15.8804 109.013 15.8804C107.462 15.8804 105.999 16.5575 105.387 17.5623L105.212 16.2299H102.133V32.3931ZM105.518 21.6904C105.518 20.0523 106.61 18.9602 108.183 18.9602C109.777 18.9602 110.782 20.0741 110.782 21.6904C110.782 23.3068 109.777 24.4207 108.183 24.4207C106.61 24.4207 105.518 23.3286 105.518 21.6904Z" fill="#D8DEE4"/>
<path d="M114.527 23.6999C114.614 25.906 116.362 27.4349 119.114 27.4349C121.757 27.4349 123.592 26.037 123.592 23.7873C123.592 22.171 122.631 21.1007 120.839 20.6638L118.896 20.1833C118.197 20.0086 117.76 19.8338 117.76 19.2659C117.76 18.698 118.218 18.3267 118.896 18.3267C119.66 18.3267 120.162 18.8291 120.141 19.5717H123.177C123.089 17.3001 121.364 15.8804 118.961 15.8804C116.537 15.8804 114.724 17.322 114.724 19.5062C114.724 20.9696 115.532 22.171 117.694 22.7389L119.616 23.2412C120.184 23.3941 120.424 23.6562 120.424 24.0275C120.424 24.5736 119.922 24.9231 119.07 24.9231C118.087 24.9231 117.563 24.4644 117.563 23.6999H114.527Z" fill="#D8DEE4"/>
<path d="M128.74 27.4349C130.073 27.4349 131.405 26.8233 132.082 25.9278L132.301 27.151H135.468V16.2299H132.104V21.9089C132.104 23.547 131.624 24.4425 130.073 24.4425C128.871 24.4425 128.085 23.8965 128.085 21.8652V16.2299H124.721V23.0883C124.721 25.6876 126.163 27.4349 128.74 27.4349Z" fill="#D8DEE4"/>
<path d="M140.802 27.151V21.1881C140.802 19.3533 141.785 18.8291 142.746 18.8291C143.816 18.8291 144.515 19.4844 144.515 20.8386V27.151H147.835V21.1881C147.835 19.3315 148.796 18.8073 149.757 18.8073C150.827 18.8073 151.548 19.4625 151.548 20.8386V27.151H154.825V20.0086C154.825 17.5186 153.514 15.8586 150.696 15.8586C149.124 15.8586 147.835 16.623 147.267 17.8025C146.612 16.623 145.476 15.8586 143.663 15.8586C142.462 15.8586 141.348 16.4046 140.693 17.2783L140.562 16.2299H137.416V27.151H140.802Z" fill="#D8DEE4"/>
<path d="M0.765625 20.7038C0.765625 11.2757 0.765625 6.56163 3.69456 3.6327C6.62349 0.703766 11.3375 0.703766 20.7656 0.703766C30.1937 0.703766 34.9077 0.703766 37.8367 3.6327C40.7656 6.56163 40.7656 11.2757 40.7656 20.7038C40.7656 30.1319 40.7656 34.8459 37.8367 37.7749C34.9077 40.7038 30.1937 40.7038 20.7656 40.7038C11.3375 40.7038 6.62349 40.7038 3.69456 37.7749C0.765625 34.8459 0.765625 30.1319 0.765625 20.7038Z" fill="#D8DEE4"/>
<path d="M24.7663 26.7038C25.3186 26.7038 25.7764 27.1559 25.6667 27.6972C25.4728 28.6532 25.0018 29.5393 24.3018 30.2393C23.3642 31.177 22.0924 31.7038 20.7663 31.7038C19.4402 31.7038 18.1685 31.177 17.2308 30.2393C16.5308 29.5393 16.0598 28.6532 15.866 27.6972C15.7562 27.1559 16.214 26.7038 16.7663 26.7038H24.7663Z" fill="#899AAB"/>
<path d="M26.8684 18.4803C26.3349 18.6232 26.0082 19.1813 26.2787 19.6628C26.5634 20.1696 26.9572 20.6119 27.4363 20.9552C28.1885 21.4942 29.1043 21.7558 30.0278 21.6952C30.9512 21.6347 31.8251 21.2559 32.5005 20.6233C33.176 19.9907 33.6111 19.1434 33.7319 18.2259C33.8527 17.3084 33.6517 16.3774 33.163 15.5915C32.6743 14.8057 31.9282 14.2136 31.0519 13.9161C30.1756 13.6186 29.2233 13.6342 28.3572 13.9602C27.8056 14.1678 27.3108 14.4931 26.9046 14.9089C26.5187 15.304 26.6898 15.9277 27.1681 16.2038L27.6754 16.4967C28.4469 16.9422 28.2948 18.0981 27.4342 18.3287L26.8684 18.4803Z" fill="#899AAB"/>
<path d="M14.6634 18.4803C15.1969 18.6232 15.5236 19.1813 15.2531 19.6628C14.9684 20.1696 14.5746 20.6119 14.0956 20.9552C13.3434 21.4942 12.4275 21.7558 11.5041 21.6952C10.5806 21.6347 9.70669 21.2559 9.03126 20.6233C8.35583 19.9907 7.92064 19.1434 7.79985 18.2259C7.67906 17.3084 7.88013 16.3774 8.36882 15.5915C8.8575 14.8057 9.60356 14.2136 10.4799 13.9161C11.3562 13.6186 12.3086 13.6342 13.1747 13.9602C13.7262 14.1678 14.2211 14.4931 14.6273 14.9089C15.0132 15.304 14.842 15.9277 14.3637 16.2038L13.8564 16.4967C13.0849 16.9422 13.2371 18.0981 14.0976 18.3287L14.6634 18.4803Z" fill="#899AAB"/>
</g>
<defs>
<clipPath id="clip0_265_2341">
<rect width="155" height="40" fill="white" transform="translate(0.765625 0.703766)"/>
</clipPath>
</defs>
</svg>
