<svg width="155" height="35" viewBox="0 0 155 35" fill="none" xmlns="http://www.w3.org/2000/svg">
<path d="M45.6406 23.3952C45.6406 24.1374 45.4882 24.7077 45.1835 25.1061C44.8867 25.5046 44.3906 25.7038 43.6953 25.7038C43.039 25.7038 42.5742 25.5046 42.3007 25.1061C42.0351 24.7077 41.9023 24.1374 41.9023 23.3952V11.0085C41.9023 10.2663 42.0351 9.69596 42.3007 9.29752C42.5742 8.89908 43.039 8.69986 43.6953 8.69986C44.3906 8.69986 44.8867 8.89908 45.1835 9.29752C45.4882 9.69596 45.6406 10.2663 45.6406 11.0085V23.3952Z" fill="white"/>
<path d="M46.7754 19.7976C46.7754 18.9694 46.9082 18.1882 47.1739 17.4538C47.4473 16.7116 47.8535 16.0632 48.3926 15.5085C48.9395 14.9538 49.6192 14.5124 50.4317 14.1843C51.252 13.8561 52.2129 13.6921 53.3145 13.6921C54.3692 13.6921 55.3028 13.8444 56.1153 14.1491C56.9278 14.4538 57.6114 14.8796 58.166 15.4265C58.7207 15.9655 59.1426 16.61 59.4317 17.36C59.7207 18.1022 59.8653 18.9147 59.8653 19.7976C59.8653 20.6179 59.7285 21.3952 59.4551 22.1296C59.1817 22.8561 58.7715 23.4968 58.2246 24.0515C57.6778 24.5983 56.9942 25.0358 56.1739 25.364C55.3535 25.6843 54.4004 25.8444 53.3145 25.8444C52.2442 25.8444 51.2989 25.6921 50.4785 25.3874C49.666 25.0749 48.9825 24.6491 48.4278 24.11C47.8809 23.5632 47.4668 22.9226 47.1856 22.1882C46.9121 21.446 46.7754 20.6491 46.7754 19.7976ZM50.6778 19.7976C50.6778 20.3132 50.7246 20.8054 50.8184 21.2741C50.9121 21.735 51.0606 22.1413 51.2637 22.4929C51.4746 22.8444 51.7481 23.1257 52.084 23.3366C52.42 23.5397 52.8301 23.6413 53.3145 23.6413C53.7598 23.6413 54.1465 23.5476 54.4746 23.36C54.8106 23.1726 55.084 22.9108 55.295 22.5749C55.5137 22.239 55.6778 21.8366 55.7871 21.3679C55.8965 20.8913 55.9512 20.3679 55.9512 19.7976C55.9512 19.2819 55.9004 18.7936 55.7989 18.3327C55.7051 17.864 55.5528 17.4538 55.3418 17.1022C55.1309 16.7429 54.8575 16.4616 54.5215 16.2585C54.1934 16.0476 53.791 15.9421 53.3145 15.9421C52.8379 15.9421 52.4317 16.0436 52.0957 16.2468C51.7598 16.4499 51.4864 16.7272 51.2754 17.0788C51.0645 17.4304 50.9121 17.8405 50.8184 18.3093C50.7246 18.778 50.6778 19.2741 50.6778 19.7976Z" fill="white"/>
<path d="M69.4844 23.4421C69.2734 23.8327 69.0156 24.1647 68.7109 24.4382C68.4141 24.7116 68.082 24.9382 67.7149 25.1179C67.3555 25.2897 66.9688 25.4186 66.5547 25.5046C66.1484 25.5827 65.7305 25.6218 65.3008 25.6218C64.582 25.6218 63.9258 25.4929 63.332 25.235C62.7383 24.9772 62.2266 24.6061 61.7969 24.1218C61.375 23.6296 61.0469 23.028 60.8125 22.3171C60.5781 21.6061 60.4609 20.7936 60.4609 19.8796C60.4609 19.0202 60.5703 18.2155 60.7891 17.4655C61.0078 16.7155 61.3242 16.0632 61.7383 15.5085C62.1602 14.9538 62.6758 14.5163 63.2852 14.196C63.8945 13.8757 64.5899 13.7155 65.3711 13.7155C66.2617 13.7155 67.0508 13.8874 67.7383 14.2311C68.4336 14.5749 69.0313 15.1374 69.5313 15.9186V15.614C69.5313 15.0515 69.6836 14.6296 69.9883 14.3483C70.3008 14.0593 70.7305 13.9147 71.2774 13.9147C71.6055 13.9147 71.8828 13.9694 72.1094 14.0788C72.3359 14.1804 72.5156 14.3366 72.6484 14.5476C72.7813 14.7507 72.875 15.0046 72.9297 15.3093C72.9922 15.6061 73.0234 15.946 73.0234 16.3288V24.1804C73.0234 25.1335 72.9024 25.985 72.6602 26.735C72.4258 27.485 72.0586 28.1179 71.5586 28.6335C71.0586 29.1491 70.418 29.5397 69.6367 29.8054C68.8555 30.0788 67.9258 30.2155 66.8477 30.2155C66.0899 30.2155 65.418 30.1804 64.832 30.11C64.2539 30.0476 63.7539 29.9499 63.332 29.8171C62.9102 29.6686 62.5899 29.5046 62.3711 29.3249C62.1602 29.1452 62.0547 28.9108 62.0547 28.6218C62.0547 28.4577 62.0781 28.3015 62.125 28.153C62.1719 28.0046 62.2422 27.8718 62.3359 27.7546C62.4375 27.6452 62.5664 27.5554 62.7227 27.485C62.8867 27.4226 63.0859 27.3913 63.3203 27.3913C63.5703 27.3913 63.8203 27.4069 64.0703 27.4382C64.3281 27.4694 64.5938 27.5007 64.8672 27.5319C65.1484 27.571 65.4414 27.6061 65.7461 27.6374C66.0586 27.6686 66.3945 27.6843 66.7539 27.6843C67.1836 27.6843 67.5664 27.6413 67.9024 27.5554C68.2383 27.4694 68.5234 27.3171 68.7578 27.0983C68.9922 26.8796 69.1719 26.5866 69.2969 26.2194C69.4219 25.86 69.4844 25.3991 69.4844 24.8366V23.4421ZM69.4844 19.7976C69.4844 19.2272 69.4414 18.7077 69.3555 18.239C69.2774 17.7702 69.1406 17.3718 68.9453 17.0436C68.75 16.7077 68.4883 16.4499 68.1602 16.2702C67.832 16.0827 67.4219 15.989 66.9297 15.989C66.4453 15.989 66.043 16.0866 65.7227 16.2819C65.4102 16.4772 65.1602 16.7468 64.9727 17.0905C64.7852 17.4343 64.6524 17.8366 64.5742 18.2976C64.5039 18.7585 64.4688 19.2507 64.4688 19.7741C64.4688 20.9694 64.6797 21.8679 65.1016 22.4694C65.5234 23.071 66.1367 23.3718 66.9414 23.3718C67.3164 23.364 67.6563 23.2936 67.9609 23.1608C68.2734 23.0202 68.543 22.8054 68.7695 22.5163C68.9961 22.2272 69.1719 21.86 69.2969 21.4147C69.4219 20.9694 69.4844 20.4304 69.4844 19.7976Z" fill="white"/>
<path d="M74.0996 19.7976C74.0996 18.9694 74.2324 18.1882 74.498 17.4538C74.7715 16.7116 75.1777 16.0632 75.7168 15.5085C76.2637 14.9538 76.9433 14.5124 77.7558 14.1843C78.5762 13.8561 79.5371 13.6921 80.6387 13.6921C81.6933 13.6921 82.6269 13.8444 83.4394 14.1491C84.2519 14.4538 84.9355 14.8796 85.4902 15.4265C86.0449 15.9655 86.4668 16.61 86.7558 17.36C87.0449 18.1022 87.1894 18.9147 87.1894 19.7976C87.1894 20.6179 87.0527 21.3952 86.7793 22.1296C86.5058 22.8561 86.0957 23.4968 85.5488 24.0515C85.0019 24.5983 84.3183 25.0358 83.498 25.364C82.6777 25.6843 81.7246 25.8444 80.6387 25.8444C79.5683 25.8444 78.623 25.6921 77.8027 25.3874C76.9902 25.0749 76.3066 24.6491 75.7519 24.11C75.2051 23.5632 74.791 22.9226 74.5097 22.1882C74.2363 21.446 74.0996 20.6491 74.0996 19.7976ZM78.0019 19.7976C78.0019 20.3132 78.0488 20.8054 78.1426 21.2741C78.2363 21.735 78.3847 22.1413 78.5879 22.4929C78.7988 22.8444 79.0722 23.1257 79.4082 23.3366C79.7441 23.5397 80.1543 23.6413 80.6387 23.6413C81.084 23.6413 81.4707 23.5476 81.7988 23.36C82.1347 23.1726 82.4082 22.9108 82.6191 22.5749C82.8379 22.239 83.0019 21.8366 83.1113 21.3679C83.2207 20.8913 83.2754 20.3679 83.2754 19.7976C83.2754 19.2819 83.2246 18.7936 83.123 18.3327C83.0293 17.864 82.8769 17.4538 82.666 17.1022C82.4551 16.7429 82.1816 16.4616 81.8457 16.2585C81.5176 16.0476 81.1152 15.9421 80.6387 15.9421C80.1621 15.9421 79.7558 16.0436 79.4199 16.2468C79.084 16.4499 78.8105 16.7272 78.5996 17.0788C78.3887 17.4304 78.2363 17.8405 78.1426 18.3093C78.0488 18.778 78.0019 19.2741 78.0019 19.7976Z" fill="white"/>
<path d="M92.2148 9.74283C92.2148 10.0006 92.1562 10.2311 92.039 10.4342C91.9218 10.6295 91.7695 10.7936 91.582 10.9265C91.3945 11.0593 91.1757 11.1608 90.9257 11.2311C90.6836 11.2936 90.4336 11.3249 90.1757 11.3249C89.9023 11.3249 89.6406 11.2897 89.3906 11.2194C89.1484 11.1491 88.9336 11.0476 88.7461 10.9147C88.5586 10.7741 88.4101 10.6061 88.3007 10.4108C88.1914 10.2155 88.1367 9.99283 88.1367 9.74283C88.1367 9.51627 88.1875 9.30924 88.289 9.12174C88.3984 8.92643 88.5429 8.75846 88.7226 8.61783C88.9023 8.47721 89.1172 8.36783 89.3672 8.28971C89.6172 8.21158 89.8906 8.17252 90.1875 8.17252C90.4453 8.17252 90.6953 8.20768 90.9375 8.27799C91.1875 8.3483 91.4062 8.44986 91.5937 8.58268C91.7812 8.71549 91.9297 8.87955 92.039 9.07486C92.1562 9.27018 92.2148 9.49283 92.2148 9.74283ZM92.039 23.3952C92.039 24.1374 91.8867 24.7077 91.582 25.1061C91.2851 25.5046 90.789 25.7038 90.0937 25.7038C89.4375 25.7038 88.9726 25.5046 88.6992 25.1061C88.4336 24.7077 88.3007 24.1374 88.3007 23.3952V16.2233C88.3007 15.4811 88.4336 14.9108 88.6992 14.5124C88.9726 14.114 89.4375 13.9147 90.0937 13.9147C90.789 13.9147 91.2851 14.114 91.582 14.5124C91.8867 14.9108 92.039 15.4811 92.039 16.2233V23.3952Z" fill="white"/>
<path d="M97.4277 19.7741C97.4277 20.2976 97.4667 20.7858 97.5449 21.239C97.6308 21.6921 97.7714 22.0905 97.9667 22.4343C98.1699 22.7702 98.4355 23.0358 98.7636 23.2311C99.0995 23.4265 99.5136 23.5241 100.006 23.5241C100.459 23.5241 100.838 23.4304 101.143 23.2429C101.455 23.0476 101.705 22.7819 101.893 22.446C102.08 22.1022 102.213 21.6999 102.291 21.239C102.377 20.778 102.42 20.278 102.42 19.739C102.42 19.3093 102.389 18.8718 102.326 18.4265C102.264 17.9733 102.147 17.5632 101.975 17.196C101.803 16.8288 101.565 16.528 101.26 16.2936C100.955 16.0593 100.557 15.9421 100.064 15.9421C99.5722 15.9421 99.1542 16.0202 98.8105 16.1765C98.4745 16.3327 98.2011 16.571 97.9902 16.8913C97.787 17.2116 97.6425 17.614 97.5566 18.0983C97.4706 18.5749 97.4277 19.1335 97.4277 19.7741ZM97.416 16.2233C97.6113 15.8093 97.8613 15.446 98.166 15.1335C98.4706 14.821 98.8066 14.5593 99.1738 14.3483C99.541 14.1374 99.9238 13.9811 100.322 13.8796C100.729 13.7702 101.131 13.7155 101.529 13.7155C102.248 13.7155 102.897 13.8757 103.475 14.196C104.053 14.5163 104.545 14.9538 104.951 15.5085C105.365 16.0554 105.682 16.7038 105.901 17.4538C106.119 18.196 106.229 18.9929 106.229 19.8444C106.229 20.7272 106.111 21.5358 105.877 22.2702C105.651 23.0046 105.326 23.6374 104.904 24.1686C104.49 24.6921 103.99 25.1022 103.404 25.3991C102.826 25.696 102.182 25.8444 101.471 25.8444C100.596 25.8444 99.8144 25.6413 99.1269 25.235C98.4394 24.8288 97.8691 24.2585 97.416 23.5241V27.7429C97.416 28.485 97.2636 29.0554 96.9589 29.4538C96.662 29.8522 96.166 30.0515 95.4706 30.0515C94.8144 30.0515 94.3495 29.8522 94.0761 29.4538C93.8105 29.0554 93.6777 28.485 93.6777 27.7429V16.2233C93.6777 15.4811 93.8105 14.9108 94.0761 14.5124C94.3495 14.114 94.8144 13.9147 95.4706 13.9147C96.166 13.9147 96.662 14.114 96.9589 14.5124C97.2636 14.9108 97.416 15.4811 97.416 16.2233Z" fill="white"/>
<path d="M110.352 17.0554C110.352 17.36 110.485 17.5983 110.75 17.7702C111.016 17.9343 111.383 18.071 111.852 18.1804C112.297 18.2819 112.754 18.3796 113.223 18.4733C113.692 18.5671 114.149 18.6765 114.594 18.8015C115.039 18.9186 115.457 19.0593 115.848 19.2233C116.238 19.3874 116.582 19.5944 116.879 19.8444C117.176 20.0866 117.41 20.3835 117.582 20.735C117.754 21.0788 117.84 21.4929 117.84 21.9772C117.84 22.5866 117.715 23.1296 117.465 23.6061C117.215 24.0749 116.86 24.4733 116.399 24.8015C115.946 25.1296 115.403 25.3835 114.77 25.5632C114.137 25.7429 113.438 25.8366 112.672 25.8444C111.946 25.8444 111.246 25.7976 110.574 25.7038C109.903 25.6179 109.305 25.4811 108.781 25.2936C108.266 25.1061 107.852 24.8757 107.539 24.6022C107.227 24.321 107.071 23.9929 107.071 23.6179C107.071 23.2897 107.176 23.0358 107.387 22.8561C107.598 22.6765 107.867 22.5866 108.196 22.5866C108.321 22.5866 108.469 22.61 108.641 22.6569C108.813 22.7038 109 22.7624 109.203 22.8327C109.406 22.903 109.621 22.9811 109.848 23.0671C110.082 23.1452 110.324 23.2155 110.574 23.278C110.887 23.364 111.207 23.4343 111.535 23.489C111.871 23.5358 112.215 23.5593 112.567 23.5593C112.785 23.5593 113 23.5397 113.211 23.5007C113.422 23.4538 113.61 23.3874 113.774 23.3015C113.946 23.2077 114.086 23.0905 114.196 22.9499C114.305 22.8093 114.371 22.6374 114.395 22.4343C114.418 22.3874 114.438 22.3405 114.453 22.2936C114.469 22.2468 114.477 22.1921 114.477 22.1296C114.477 21.9108 114.375 21.7155 114.172 21.5436C113.977 21.3718 113.699 21.235 113.34 21.1335C112.738 20.9929 112.164 20.864 111.617 20.7468C111.071 20.6296 110.563 20.5046 110.094 20.3718C109.633 20.239 109.211 20.0866 108.828 19.9147C108.453 19.7429 108.133 19.5319 107.867 19.2819C107.61 19.0319 107.406 18.7311 107.258 18.3796C107.117 18.028 107.047 17.6022 107.047 17.1022C107.047 16.5632 107.168 16.0827 107.41 15.6608C107.66 15.2311 108.016 14.8718 108.477 14.5827C108.938 14.2936 109.496 14.0749 110.153 13.9265C110.809 13.7702 111.551 13.6921 112.379 13.6921C113.863 13.6921 114.992 13.8718 115.766 14.2311C116.547 14.5827 116.938 15.0436 116.938 15.614C116.938 15.9343 116.832 16.1804 116.621 16.3522C116.41 16.5163 116.156 16.5983 115.86 16.5983C115.703 16.5983 115.539 16.571 115.367 16.5163C115.203 16.4538 115.004 16.3874 114.77 16.3171C114.535 16.239 114.254 16.1726 113.926 16.1179C113.606 16.0554 113.207 16.0241 112.731 16.0241C112.371 16.0241 112.043 16.0397 111.746 16.071C111.457 16.1022 111.207 16.1569 110.996 16.235C110.793 16.3132 110.633 16.4186 110.516 16.5515C110.406 16.6843 110.352 16.8522 110.352 17.0554Z" fill="white"/>
<path d="M122.595 21.3561C122.595 21.7233 122.642 22.0436 122.736 22.3171C122.837 22.5905 122.974 22.821 123.146 23.0085C123.318 23.1882 123.517 23.3249 123.743 23.4186C123.978 23.5046 124.228 23.5476 124.493 23.5476C124.806 23.5476 125.107 23.5007 125.396 23.4069C125.685 23.3132 125.939 23.1686 126.158 22.9733C126.384 22.778 126.564 22.5319 126.697 22.235C126.829 21.9382 126.896 21.5905 126.896 21.1921V16.2233C126.896 15.4811 127.029 14.9108 127.294 14.5124C127.568 14.114 128.033 13.9147 128.689 13.9147C129.384 13.9147 129.88 14.114 130.177 14.5124C130.482 14.9108 130.634 15.4811 130.634 16.2233V23.3952C130.634 24.1374 130.482 24.7077 130.177 25.1061C129.88 25.5046 129.384 25.7038 128.689 25.7038C128.033 25.7038 127.568 25.5046 127.294 25.1061C127.029 24.7077 126.896 24.1374 126.896 23.3952C126.732 23.7546 126.517 24.0827 126.251 24.3796C125.993 24.6765 125.689 24.9343 125.337 25.153C124.993 25.364 124.611 25.528 124.189 25.6452C123.775 25.7624 123.325 25.821 122.841 25.821C122.318 25.821 121.814 25.7311 121.329 25.5515C120.853 25.364 120.431 25.0905 120.064 24.7311C119.697 24.364 119.404 23.9108 119.185 23.3718C118.966 22.8327 118.857 22.2038 118.857 21.485V16.2233C118.857 15.4811 118.99 14.9108 119.255 14.5124C119.529 14.114 119.993 13.9147 120.65 13.9147C121.345 13.9147 121.841 14.114 122.138 14.5124C122.443 14.9108 122.595 15.4811 122.595 16.2233V21.3561Z" fill="white"/>
<path d="M132.332 16.2233C132.332 15.4811 132.465 14.9108 132.731 14.5124C133.004 14.114 133.469 13.9147 134.125 13.9147C134.821 13.9147 135.317 14.114 135.614 14.5124C135.918 14.9108 136.071 15.4811 136.071 16.2233C136.227 15.8483 136.438 15.5085 136.704 15.2038C136.977 14.8913 137.286 14.6257 137.629 14.4069C137.981 14.1882 138.36 14.0202 138.766 13.903C139.172 13.778 139.594 13.7155 140.032 13.7155C140.438 13.7155 140.836 13.7702 141.227 13.8796C141.625 13.9811 141.993 14.1491 142.329 14.3835C142.672 14.61 142.973 14.8991 143.231 15.2507C143.489 15.6022 143.688 16.0241 143.829 16.5163C144.071 15.9929 144.356 15.5515 144.684 15.1921C145.012 14.8327 145.368 14.5436 145.75 14.3249C146.133 14.1061 146.532 13.9499 146.946 13.8561C147.368 13.7624 147.789 13.7155 148.211 13.7155C148.711 13.7155 149.188 13.8054 149.641 13.985C150.102 14.1647 150.504 14.4382 150.848 14.8054C151.2 15.1647 151.477 15.6218 151.68 16.1765C151.891 16.7233 151.996 17.364 151.996 18.0983V23.3952C151.996 24.1374 151.844 24.7077 151.539 25.1061C151.243 25.5046 150.746 25.7038 150.051 25.7038C149.395 25.7038 148.93 25.5046 148.657 25.1061C148.391 24.7077 148.258 24.1374 148.258 23.3952V18.2624C148.258 17.9108 148.211 17.5983 148.118 17.3249C148.024 17.0436 147.891 16.8093 147.719 16.6218C147.555 16.4265 147.36 16.2819 147.133 16.1882C146.907 16.0866 146.664 16.0358 146.407 16.0358C146.086 16.0358 145.782 16.0866 145.493 16.1882C145.204 16.2897 144.95 16.446 144.731 16.6569C144.52 16.8679 144.348 17.1374 144.215 17.4655C144.09 17.7936 144.028 18.1882 144.028 18.6491V23.3952C144.028 24.1374 143.875 24.7077 143.571 25.1061C143.274 25.5046 142.778 25.7038 142.082 25.7038C141.426 25.7038 140.961 25.5046 140.688 25.1061C140.422 24.7077 140.289 24.1374 140.289 23.3952V18.485C140.289 17.6804 140.121 17.071 139.786 16.6569C139.457 16.2429 139.008 16.0358 138.438 16.0358C138.102 16.0358 137.789 16.0905 137.5 16.1999C137.211 16.3093 136.961 16.4694 136.75 16.6804C136.539 16.8913 136.371 17.153 136.246 17.4655C136.129 17.778 136.071 18.1374 136.071 18.5436V23.3952C136.071 24.1374 135.918 24.7077 135.614 25.1061C135.317 25.5046 134.821 25.7038 134.125 25.7038C133.469 25.7038 133.004 25.5046 132.731 25.1061C132.465 24.7077 132.332 24.1374 132.332 23.3952V16.2233Z" fill="white"/>
<path d="M17.5312 23.7038C14.2176 23.7038 11.5312 21.0175 11.5312 17.7038C11.5312 14.3901 14.2176 11.7038 17.5312 11.7038C20.8449 11.7038 23.5312 14.3901 23.5312 17.7038C23.5312 21.0175 20.8449 23.7038 17.5312 23.7038Z" fill="#D8DEE4"/>
<path d="M5.90827 19.7534C4.16952 20.06 2.9777 21.7396 3.64515 23.3742C4.57699 25.6562 6.06362 27.6894 7.99093 29.2782C10.7468 31.5499 14.2228 32.7638 17.7938 32.7015C21.3648 32.6392 24.7964 31.3047 27.4714 28.9381C29.342 27.2831 30.7568 25.1992 31.6085 22.8861C32.2185 21.2292 30.9687 19.5922 29.2203 19.3465C27.472 19.1008 25.9022 20.3734 25.0386 21.9134C24.5705 22.7481 23.9628 23.5054 23.2348 24.1495C21.7 25.5074 19.7311 26.273 17.6823 26.3088C15.6334 26.3445 13.639 25.6481 12.0578 24.3446C11.3077 23.7263 10.674 22.9907 10.1771 22.1728C9.26027 20.6639 7.64702 19.4468 5.90827 19.7534Z" fill="#D8DEE4"/>
<path d="M32.4153 19.5783C32.4918 18.9642 32.5312 18.3386 32.5312 17.7038C32.5312 9.4195 25.8155 2.70377 17.5312 2.70377C9.24698 2.70377 2.53125 9.4195 2.53125 17.7038C2.53125 18.5185 2.5962 19.318 2.72121 20.0975C3.41019 19.1543 4.48551 18.481 5.64701 18.2762C6.9037 18.0546 8.04583 18.3594 9.01152 18.9291C8.95447 18.5289 8.92495 18.1198 8.92495 17.7038C8.92495 12.9507 12.7782 9.09747 17.5312 9.09747C22.2843 9.09747 26.1376 12.9507 26.1376 17.7038C26.1376 18.0172 26.1208 18.3267 26.0882 18.6314C27.0334 18.0281 28.1644 17.6834 29.4284 17.8611C30.596 18.0252 31.6938 18.6602 32.4153 19.5783Z" fill="#B1BCC7"/>
</svg>
