<svg width="33" height="32" viewBox="0 0 33 32" fill="none" xmlns="http://www.w3.org/2000/svg">
<path d="M11.4386 29.5325H4.004C3.21605 29.5325 2.46034 29.2197 1.90292 28.6628C1.3455 28.1059 1.03198 27.3505 1.03125 26.5625V11.6919C1.03125 10.9035 1.34445 10.1473 1.90195 9.58984C2.45945 9.03234 3.21558 8.71914 4.004 8.71914H14.8665C15.6549 8.71914 16.4111 9.03234 16.9686 9.58984C17.5261 10.1473 17.8392 10.9035 17.8392 11.6919V12.719M1.03125 14.666H12.4644M1.03125 23.5856H9.95087M5.49175 1.28589H13.3856C13.5811 1.28571 13.7747 1.32412 13.9553 1.39893C14.1359 1.47373 14.2999 1.58346 14.438 1.72181C14.5761 1.86016 14.6855 2.02441 14.76 2.20514C14.8345 2.38588 14.8725 2.57954 14.872 2.77501V8.71914H4.0095V2.77501C4.00877 2.38104 4.16448 2.00289 4.44242 1.72367C4.72035 1.44444 5.09778 1.28698 5.49175 1.28589Z" stroke="black" stroke-width="1.125" stroke-linecap="round" stroke-linejoin="round"/>
<path d="M23.898 20.1179V26.1706M20.8716 23.1442H26.9258M31.9693 21.1257C31.9744 23.4752 31.1771 25.756 29.7093 27.5905C28.2415 29.4251 26.1913 30.7035 23.898 31.2141C21.605 30.7032 19.5551 29.4247 18.0876 27.5902C16.6201 25.7556 15.823 23.475 15.8281 21.1257V18.1007C15.8281 17.5658 16.0407 17.0527 16.419 16.6744C16.7972 16.2961 17.3103 16.0836 17.8453 16.0836H29.9522C30.4871 16.0836 31.0002 16.2961 31.3785 16.6744C31.7568 17.0527 31.9693 17.5658 31.9693 18.1007V21.1257Z" stroke="black" stroke-width="1.125" stroke-linecap="round" stroke-linejoin="round"/>
</svg>
