<svg width="33" height="32" viewBox="0 0 33 32" fill="none" xmlns="http://www.w3.org/2000/svg">
<path d="M11.4386 29.5324H4.004C3.21605 29.5324 2.46034 29.2196 1.90292 28.6627C1.3455 28.1058 1.03198 27.3503 1.03125 26.5624V11.6918C1.03125 10.9033 1.34445 10.1472 1.90195 9.58972C2.45945 9.03222 3.21558 8.71902 4.004 8.71902H14.8665C15.6549 8.71902 16.4111 9.03222 16.9686 9.58972C17.5261 10.1472 17.8392 10.9033 17.8392 11.6918V12.7189M1.03125 14.6659H12.4644M1.03125 23.5855H9.95087M5.49175 1.28577H13.3856C13.5811 1.28559 13.7747 1.324 13.9553 1.3988C14.1359 1.47361 14.2999 1.58333 14.438 1.72168C14.5761 1.86003 14.6855 2.02429 14.76 2.20502C14.8345 2.38576 14.8725 2.57942 14.872 2.77489V8.71902H4.0095V2.77489C4.00877 2.38092 4.16448 2.00277 4.44242 1.72355C4.72035 1.44432 5.09778 1.28686 5.49175 1.28577Z" stroke="#00BAB5" stroke-width="1.125" stroke-linecap="round" stroke-linejoin="round"/>
<path d="M23.898 20.1177V26.1705M20.8716 23.1441H26.9258M31.9693 21.1256C31.9744 23.4751 31.1771 25.7558 29.7093 27.5904C28.2415 29.425 26.1913 30.7034 23.898 31.214C21.605 30.7031 19.5551 29.4246 18.0876 27.5901C16.6201 25.7555 15.823 23.4749 15.8281 21.1256V18.1006C15.8281 17.5656 16.0407 17.0526 16.419 16.6743C16.7972 16.296 17.3103 16.0835 17.8453 16.0835H29.9522C30.4871 16.0835 31.0002 16.296 31.3785 16.6743C31.7568 17.0526 31.9693 17.5656 31.9693 18.1006V21.1256Z" stroke="#00BAB5" stroke-width="1.125" stroke-linecap="round" stroke-linejoin="round"/>
</svg>
