<svg width="40" height="40" viewBox="0 0 40 40" fill="none" xmlns="http://www.w3.org/2000/svg">
<rect x="39" y="39" width="38" height="38" rx="19" transform="rotate(-180 39 39)" stroke="#F7FFFF" stroke-width="2"/>
<path d="M15.1885 17.7238C15.1 17.6353 15.1 17.491 15.1885 17.4025L19.8398 12.7521C19.9284 12.6637 20.0716 12.6636 20.1602 12.7521L24.8105 17.4025C24.855 17.447 24.8769 17.5042 24.877 17.5627C24.877 17.6214 24.8549 17.6794 24.8105 17.7238L24.8105 17.7248C24.722 17.8124 24.5785 17.8119 24.4902 17.7238L21.0801 14.3127L20.2266 13.4592L20.2266 27.0881C20.2265 27.2131 20.125 27.3145 20 27.3146C19.8749 27.3146 19.7735 27.2132 19.7734 27.0881L19.7734 13.4592L15.5088 17.7238C15.4203 17.812 15.277 17.8121 15.1885 17.7238Z" fill="#F7FFFF" stroke="#F7FFFF"/>
</svg>
